<svg xmlns="http://www.w3.org/2000/svg"><defs><font id="PatternFlyIcons-webfont" horiz-adv-x="1024"><font-face ascent="960" descent="-64" units-per-em="1024"/><glyph horiz-adv-x="512"/><glyph d="M1024 146.286v731.429H0V146.286h438.857V73.143H219.428V0h585.143v73.143H585.142v73.143ZM146.286 731.428h731.429V292.571H146.286Z" data-tags="screen, monitor, computer, pc, desktop" glyph-name="screen" unicode=""/><glyph d="M738.448 397.076 553.934 173.35C517.824 137.238 505.708 137.704 470.064 173.35L285.55 397.076c-23.063 23.065-15.248 41.936 17.369 41.936h135.938v201.159c-.002 5.298.933 9.666 4.375 13.109 3.442 3.44 7.813 5.166 13.111 5.161h109.735c5.296.005 9.666-1.719 13.104-5.161 3.445-3.442 5.959-7.815 5.959-13.109V439.012h135.938c32.619 0 40.434-18.871 17.369-41.936m139.266 553.781H0v-1024h1024v877.735Zm0-877.714H145.289l.997 731.429h658.286l73.143-73.143V73.143Z" data-tags="save" glyph-name="save" unicode=""/><glyph d="M763.431 521.737c.002-10.286-3.422-18.855-10.281-25.714l-205.835-204.24-58.288-58.29q-10.288-10.286-25.714-10.286-15.429 0-25.714 10.286L266.372 404.682q-10.284 10.291-10.283 25.719c.001 15.428 3.426 18.857 10.283 25.714l50.206 50.206q10.286 10.287 25.714 10.281c10.29 0 18.857-3.424 25.717-10.286L461.7 412.67l188.203 186.608q10.285 10.286 25.719 10.286 15.425.001 25.714-10.286l51.817-51.822q10.284-10.292 10.279-25.719ZM512.059-73.143C229.721-73.143 0 156.53 0 438.882c0 282.235 229.721 511.975 512.059 511.975C794.34 950.857 1024 721.122 1024 438.882c.005-282.352-229.659-512.025-511.941-512.025m0 899.666c-213.826 0-387.728-173.856-387.728-387.643 0-213.888 173.904-387.691 387.728-387.691 213.717 0 387.671 173.803 387.671 387.691.005 213.785-173.957 387.643-387.671 387.643" data-tags="ok" glyph-name="ok" unicode=""/><glyph d="m672.75 578.352 10.249 20.555s35.71 80.126-45.57 104.654a19446686 19446686 0 0 1-392.35 118.391l7.25 55.963c4.576 35.349-19.209 72.939-54.553 72.939s-68.855-28.654-73.433-64l-124.345-960h129.145l50.066 386.533 213.232 61.563-3.671-13.854s-3.627-85.241 103.961-53.019c56.818 17.015 458.126 186.702 458.126 186.702Z" data-tags="messages" glyph-name="messages" horiz-adv-x="951" unicode=""/><glyph d="M512.059-73.143C229.721-73.143 0 156.53 0 438.882c0 282.235 229.721 511.975 512.059 511.975C794.34 950.857 1024 721.122 1024 438.882c.005-282.352-229.659-512.025-511.941-512.025m0 899.666c-213.826 0-387.728-173.856-387.728-387.643 0-213.89 173.904-387.694 387.728-387.694 213.717 0 387.671 173.803 387.671 387.694.005 213.785-173.957 387.643-387.671 387.643m73.084-661.952v109.714q.001 7.427-5.429 12.857c-5.43 5.43-7.906 5.429-12.857 5.429H457.143q-7.43.001-12.857-5.429c-5.427-5.43-5.429-7.906-5.429-12.857V164.571q0-7.427 5.429-12.857c5.429-5.43 7.904-5.429 12.857-5.429h109.714q7.427-.001 12.857 5.429c5.43 5.43 5.429 7.906 5.429 12.857m-63.527 201.143c118.343 0 214.286 88.965 214.286 187.429s-95.943 178.286-214.286 178.286c-173.045 0-208.091-93.714-213.963-171.113 0-7.936 6.729-9.838 15.872-9.838h113.143c6.096 0 14.475.633 17.554 10.571 0 48.857 135.968 54.953 135.968-7.904 0-31.506-29.717-63.817-68.571-66.194s-82.286-7.607-82.286-54.199v-44.693c0-19.015 9.717-22.343 27.431-22.343Z" data-tags="help" glyph-name="help" unicode=""/><glyph d="M1226.126 430.391c-11.538 5.641-24.709 8.466-39.511 8.466H403.253c-121.691 0-172.409-79.465-172.409-79.465L73.143 146.286l72.912 253.2q17.632 47.257 74.101 80.146c37.641 21.927 76.905 32.366 117.778 32.366h759.625v146.286s-.418 73.611-73.561 73.611h-512l-51.826 81.083s-30.041 64.734-94.041 64.734H73.56c-83.591 0-73.143-73.143-73.143-73.143V-.002h841.797q43.102-.002 93.714 23.122c33.742 15.413 59.973 34.197 78.695 56.341l208.565 279.929q20.242 22.8 20.242 42.99 0 19.543-17.303 28.011Z" data-tags="folder-open" glyph-name="folder-open" horiz-adv-x="1243" unicode=""/><glyph d="M1097.563 0v658.286s-.421 73.611-73.563 73.611H512l-51.826 81.083s-30.043 64.734-94.043 64.734H73.56c-83.591 0-73.143-73.143-73.143-73.143V0Z" data-tags="folder-close" glyph-name="folder-close" horiz-adv-x="1097" unicode=""/><glyph d="M365.714 838.857c0-60.594-49.121-109.714-109.714-109.714s-109.714 49.121-109.714 109.714c0 60.594 49.121 109.714 109.714 109.714s109.714-49.121 109.714-109.714m731.429-656c0-60.594-49.121-109.714-109.714-109.714s-109.714 49.121-109.714 109.714c0 60.594 49.121 109.714 109.714 109.714s109.714-49.121 109.714-109.714M219.429 256c0-60.594-49.121-109.714-109.714-109.714S.001 195.407.001 256c0 60.594 49.121 109.714 109.714 109.714S219.429 316.593 219.429 256M828.8 306.286l-75.2 51.2c8.457 25.6 13.257 52.8 13.257 81.143 0 55.086-17.371 106.057-47.314 147.886l87.771 89.6a145.8 145.8 0 0 1 70.4-18.057c80.686 0 146.286 65.6 146.286 146.286s-65.6 146.514-146.286 146.514-146.286-65.6-146.286-146.286c0-28.8 8.229-55.543 22.629-78.171l-85.029-86.857c-43.2 33.829-97.829 54.171-157.029 54.171-33.829 0-66.286-6.629-96-18.743l-13.943 18.971c-13.486 18.286-37.714 23.543-53.714 11.429-16.229-11.886-18.514-36.571-5.257-54.857l9.6-13.029c-58.286-46.629-95.543-118.4-95.543-198.857 0-22.4 2.971-44.114 8.457-64.914l-2.743-1.143c-19.2-9.371-28.343-32-20.571-50.286s29.943-25.6 48.914-16.457l2.514 1.143c35.429-58.514 93.486-101.486 162.286-117.029l-4.343-42.057c-49.143-11.2-85.714-55.771-85.714-109.257 0-61.943 49.143-112 109.714-112s109.714 50.057 109.714 112c0 44.114-24.914 82.057-61.029 100.343l4.8 45.257c79.314 5.257 148.571 46.629 191.771 107.886l68.8-46.857c18.286-12.571 42.286-9.143 53.029 7.771s4.571 40.914-13.943 53.257Zm48.914 576c42.971 0 77.714-34.743 77.714-77.714s-34.743-77.714-77.714-77.714S800 761.601 800 804.572s34.743 77.714 77.714 77.714M475.429-20.572C442.515-20.572 416 5.942 416 38.857s26.514 59.429 59.429 59.429 59.429-26.514 59.429-59.429-26.514-59.429-59.429-59.429m36.571 320c-77.029 0-139.429 62.4-139.429 139.429S434.971 578.286 512 578.286s139.429-62.4 139.429-139.429S589.029 299.428 512 299.428" data-tags="topology" glyph-name="topology" unicode=""/><glyph d="m219.554 0 73.294 73.143-146.583 146.286-73.07-73.143V73.143h73.09V-.295Zm586.622 512L219.429-73.143H0v219.429l586.585 585.143ZM1024 762.937q0-28.585-19.968-48.537L857.454 563.945 638.768 782.45l148.576 147.915q19.432 20.494 48.578 20.494 28.61 0 49.115-20.494l118.994-118.352q19.968-21.036 19.968-49.077Z" data-tags="edit" glyph-name="edit" unicode=""/><glyph d="M96.464 804.571c-4.816-.064-9.12-1.963-12.912-5.733L5.737 721.023c-3.769-3.794-5.669-8.096-5.735-12.91q-.049-7.258 5.543-12.823L622.148 78.684c3.71-3.714 7.986-5.577 12.823-5.541 4.834.039 9.138 1.957 12.91 5.73l77.817 77.819c3.769 3.769 5.691 8.066 5.73 12.912.037 4.839-1.829 9.106-5.538 12.825L109.284 799.028c-3.717 3.73-7.986 5.575-12.821 5.541Zm525.68-5.54L5.541 182.43c-3.726-3.717-5.577-7.989-5.536-12.827.059-4.843 1.959-9.143 5.728-12.914L83.55 78.872c3.792-3.774 8.096-5.691 12.91-5.728 4.837-.039 9.106 1.824 12.821 5.536L725.88 695.288c3.717 3.712 5.579 7.989 5.543 12.823-.041 4.814-1.959 9.118-5.728 12.91l-77.824 77.808c-3.767 3.778-8.073 5.678-12.907 5.744q-7.249.05-12.818-5.541Z" data-tags="close" glyph-name="close" horiz-adv-x="731" unicode=""/><glyph d="M950.857 438.857h18.286c30.171 0 54.857 24.686 54.857 54.857v182.857c0 30.171-24.686 54.857-54.857 54.857h-18.286v219.429H804.571V731.428h-18.286c-30.171 0-54.857-24.686-54.857-54.857V493.714c0-30.171 24.686-54.857 54.857-54.857h18.286v-512h146.286ZM804.571 658.286h146.286V512H804.571Zm-201.142-512c30.171 0 54.857 24.686 54.857 54.857V384c0 30.171-24.686 54.857-54.857 54.857h-18.286v512H438.857v-512h-18.286c-30.171 0-54.857-24.686-54.857-54.857V201.143c0-30.171 24.686-54.857 54.857-54.857h18.286V-73.143h146.286v219.429ZM438.857 365.714h146.286V219.428H438.857Zm-201.143 73.143c30.171 0 54.857 24.686 54.857 54.857v182.857c0 30.171-24.686 54.857-54.857 54.857h-18.286v219.429H73.142V731.428H54.856c-30.171 0-54.857-24.686-54.857-54.857V493.714c0-30.171 24.686-54.857 54.857-54.857h18.286v-512h146.286v512ZM73.143 658.286h146.286V512H73.143Z" data-tags="equalizer, control, options, settings, dashboard" glyph-name="equalizer" unicode=""/><glyph d="M146.286-73.143h585.143l73.143 658.286H73.143Zm438.857 877.998v146.002H292.572V804.855L.001 804.572V585.143l73.001 73.143h731.57l73.143-73.143v219.712Zm-74.133 0H365.714v73.001H511.01Z" data-tags="remove, delete, trashcan, recycle bin, bin, dispose" glyph-name="remove2" horiz-adv-x="878" unicode=""/><glyph d="M219.429 877.714h585.143V731.428H219.429ZM960 658.286H64c-35.2 0-64-28.8-64-64V283.429c0-35.2 28.798-64 64-64h155.429V0h585.143v219.429h155.429c35.2 0 64 28.8 64 64v310.857c0 35.2-28.8 64-64 64ZM731.429 73.143H292.572v292.571h438.857Zm228.496 476.875c0-25.625-20.777-46.4-46.402-46.4s-46.402 20.775-46.402 46.4 20.777 46.4 46.402 46.4c25.63 0 46.402-20.775 46.402-46.4" data-tags="print, printer" glyph-name="print" unicode=""/><glyph d="M874.016 800.873C781.369 893.531 653.385 950.857 512 950.857c-282.77 0-512-229.23-512-512s229.23-512 512-512c153.639 0 291.458 67.691 385.303 174.857l-96.32 84.283c-5.595-6.377-11.401-12.615-17.458-18.667C711.002 94.802 614.57 54.857 512 54.857S313.001 94.802 240.469 167.323C167.948 239.858 128 336.288 128 438.857s39.947 198.999 112.469 271.529C312.999 782.912 409.431 822.857 512 822.857s198.999-39.945 271.529-112.471l154.805-61.198ZM682.425 627.568c-23.333-23.333-15.424-42.425 17.575-42.425h264c51.666 0 60 9.001 60 60v264c0 33.001-19.093 40.907-42.425 17.575Z" data-tags="spinner, loading, busy, wait, wheel, repeat" glyph-name="spinner2" unicode=""/><glyph d="M585.143 754.658c85.63-20.126 158.018-74.816 201.838-148.633l185.614 60.357c-72.864 150.469-216.526 259.899-387.451 284.475ZM237.598 607.001c43.877 73.323 116.007 127.621 201.259 147.659v196.197C268.4 926.35 125.054 817.454 52 667.623ZM153.895 73.73l115.23 158.366C221.066 288.361 192 361.499 192 441.474c0 8.761.366 17.433 1.056 26.016L7.28 528.171a519.7 519.7 0 0 1-7.282-86.697C0 297.38 58.949 167.147 153.895 73.73m481.257 70.809c-37.909-15.906-79.506-24.702-123.152-24.702-44.366 0-86.615 9.083-125.024 25.483L271.744-13.048C343.392-51.391 425.163-73.146 512-73.146c86.089 0 167.195 21.387 238.402 59.118Zm195.879 321.815c.631-8.213.969-16.507.969-24.882 0-80.704-29.589-154.455-78.439-210.923L868.608 72.261C964.432 165.781 1024 296.624 1024 441.472c0 29.079-2.427 57.579-7.047 85.337Z" data-tags="spinner, loading, busy, wait, wheel" glyph-name="spinner" unicode=""/><glyph d="m687.721 571.335-95.387-95.387-393.84 393.856c-5.285 5.262-11.353 7.909-18.203 7.911-6.862 0-12.935-2.649-18.222-7.911L81.05 788.785c-5.262-5.285-7.909-11.353-7.909-18.219 0-6.85 2.649-12.914 7.909-18.203l393.856-393.84-95.381-95.381c-24.039-24.037-15.89-43.705 18.105-43.705h271.982c53.227 0 61.813 9.273 61.813 61.813v271.984c.005 33.995-19.662 42.149-43.703 18.103ZM877.714 84.571q0-4.97-3.232-8.203c-2.151-2.151-4.889-3.227-8.199-3.225H157.622q-4.93 0-8.137 3.202-3.202 3.205-3.202 8.135v404.843q.001 9.857-6.409 16.272c-4.27 4.267-9.696 6.407-16.267 6.405H22.674c-6.571.002-11.998-2.137-16.267-6.405-4.277-4.277-6.409-9.701-6.409-16.272v-539.79c-.002-6.571 2.137-11.998 6.405-16.267q6.416-6.41 16.272-6.409h978.647c6.571-.002 11.998 2.137 16.267 6.405q6.41 6.415 6.409 16.272v978.647q.001 9.856-6.409 16.272c-4.27 4.267-9.696 6.407-16.267 6.405H461.535q-9.856.001-16.272-6.409c-4.267-4.27-6.407-9.696-6.405-16.267V827.249c-.002-6.569 2.137-11.998 6.405-16.265 4.277-4.277 9.701-6.411 16.272-6.411h404.752q4.97 0 8.203-3.232c2.151-2.149 3.227-4.889 3.225-8.197V84.573Z" data-tags="import" glyph-name="import" unicode=""/><glyph d="m980.293 278.754-95.387-95.387-393.84 393.856c-5.285 5.262-11.353 7.909-18.203 7.911-6.862 0-12.935-2.649-18.222-7.911l-81.019-81.019c-5.262-5.285-7.909-11.353-7.909-18.219 0-6.85 2.649-12.914 7.909-18.203l393.856-393.84-95.381-95.381c-24.039-24.037-15.89-43.705 18.105-43.705h271.982c53.227 0 61.813 9.273 61.813 61.813v271.982c.005 33.998-19.662 42.151-43.703 18.105ZM146.286 793.143q0 4.97 3.232 8.203c2.151 2.151 4.889 3.227 8.199 3.225h708.661q4.93 0 8.137-3.202 3.202-3.205 3.202-8.135V461.533q-.001-9.856 6.409-16.272c4.27-4.267 9.696-6.407 16.267-6.405h100.933c6.571-.002 11.998 2.137 16.267 6.405 4.277 4.277 6.409 9.701 6.409 16.272V928.18c.002 6.571-2.137 11.998-6.405 16.267q-6.415 6.41-16.272 6.409H22.676c-6.571.002-11.998-2.137-16.267-6.405Q-.001 938.036 0 928.179V-50.468q-.001-9.856 6.409-16.272c4.27-4.267 9.696-6.407 16.267-6.405h466.647q9.857-.001 16.272 6.411c4.267 4.267 6.407 9.696 6.405 16.265V50.464c.002 6.569-2.137 11.998-6.405 16.265-4.277 4.277-9.701 6.411-16.272 6.411H157.714q-4.97 0-8.203 3.232c-2.151 2.149-3.227 4.889-3.225 8.197V793.14Z" data-tags="export" glyph-name="export" unicode=""/><glyph d="M149.984 800.873C242.631 893.531 370.615 950.857 512 950.857c282.77 0 512-229.23 512-512s-229.23-512-512-512c-153.639 0-291.458 67.691-385.303 174.857l96.32 84.283c5.595-6.377 11.401-12.615 17.458-18.667C312.998 94.802 409.43 54.857 512 54.857s198.999 39.945 271.531 112.466C856.054 239.856 896 336.288 896 438.857s-39.947 198.999-112.469 271.529C711.001 782.912 614.569 822.857 512 822.857s-198.999-39.945-271.529-112.471L85.666 649.188Zm174.587-435.159q-14.002-.001-22.999 9.001-9 9-9.001 22.999v9.143q-.001 14.002 9.001 22.999 9 9 22.999 9.001H512v260.571q-.001 14.002 9.001 22.999 9 9 22.999 9.001h9.143q14.002.001 22.999-9.001 9-9 9.001-22.999V397.714q.001-14.002-9.001-22.999-9-9-22.999-9.001Zm17.004 261.854c23.333-23.333 15.424-42.425-17.575-42.425H60c-51.666 0-60 9.001-60 60v264c0 33.001 19.093 40.907 42.425 17.575Z" data-tags="history" glyph-name="history" unicode=""/><glyph d="M1023.929 430.75q-.636 8.572-6.987 13.655L560.27 861.671q-20.326 16.513-48.27 16.514-27.947 0-48.272-16.514L7.058 444.405Q.707 439.323.071 430.75q-.637-8.578 4.446-14.928l35.017-42.933q5.08-5.715 13.337-6.987c.997-.082 36.619-.135 93.282-.16V40.179q0-16.514 12.069-28.581Q170.291-.471 186.803-.471h252.03v293.545h146.279V-.471h252.085q16.512.002 28.581 12.069c8.048 8.043 12.066 17.573 12.066 28.581v325.685C933.298 365.887 968.102 365.864 969.167 365.864h1.906c5.504.848 9.95 3.214 13.337 7.024l35.072 42.933q5.082 6.352 4.448 14.93Z" data-tags="home" glyph-name="home" unicode=""/><glyph d="M512.059-73.143C229.721-73.143 0 156.53 0 438.882 0 721.12 229.721 950.857 512.059 950.857c282.283 0 511.941-229.735 511.941-511.975.005-282.352-229.659-512.025-511.941-512.025m0 899.666c-213.826 0-387.728-173.856-387.728-387.643 0-213.888 173.904-387.691 387.728-387.691 213.717 0 387.671 173.803 387.671 387.691.005 213.785-173.957 387.643-387.671 387.643m214.224-319.746c-3.429 3.477-7.803 5.223-13.138 5.223H585.14v128.007q0 7.998-5.218 13.138c-5.218 5.14-7.936 5.141-13.351 5.141H457.428c-5.417 0-9.863-1.714-13.351-5.141q-5.221-5.143-5.221-13.141V511.999l-128.007-.002q-7.998.002-13.138-5.218c-3.426-3.477-5.141-7.934-5.141-13.351V384.285c0-5.417 1.714-9.856 5.141-13.351q5.142-5.221 13.141-5.221l128.005.002V237.706c0-5.335 1.744-9.707 5.225-13.134q5.217-5.144 13.344-5.145h109.143c5.417 0 9.858 1.717 13.351 5.145 3.477 3.429 5.223 7.803 5.223 13.138v128.002H713.15c5.335 0 9.707 1.742 13.134 5.225q5.144 5.217 5.145 13.344v109.143c0 5.417-1.717 9.863-5.145 13.351Z" data-tags="add-circle-o" glyph-name="add-circle-o" unicode=""/><glyph d="m1316.571 621.486-219.429 183.543V658.286H965.713c-.229.229-.229.686-.457.914Q906.285 760 805.485 818.971c-67.2 39.086-140.571 58.743-220.343 58.743s-153.143-19.657-220.343-58.971q-100.8-58.971-159.771-159.771c-39.086-67.2-58.743-140.571-58.743-220.114 0-24.914 1.829-49.143 5.714-72.686H-.23l.229-73.371h170.743c8.914-25.6 20.571-50.286 34.514-74.286q58.971-100.8 159.771-159.771C465.827-.227 505.598.001 585.37.001c79.771 0 153.143 19.657 220.343 58.743q100.8 58.971 159.771 159.771c38.857 67.2 58.514 140.571 58.514 220.343 0 51.2-8.229 99.886-24.457 146.057h97.6V438.401l219.429 183.086ZM242.514 437.714c0 46.629 9.143 90.971 27.429 133.486s42.743 79.086 73.371 109.714q45.943 45.944 109.714 73.371c63.771 27.427 86.857 27.429 133.486 27.429s90.971-9.143 133.486-27.429 79.086-42.743 109.714-73.371c7.086-7.086 13.943-14.629 20.571-22.4H584.914l.229-73.371h311.314c2.057-4.571 4.343-9.143 6.171-13.714 18.286-42.514 27.429-86.857 27.429-133.486s-9.143-90.971-27.429-133.486q-27.429-63.772-73.371-109.714c-45.942-45.942-67.2-55.086-109.714-73.371-42.514-18.286-86.857-27.429-133.486-27.429s-90.971 9.143-133.486 27.429q-63.772 27.429-109.714 73.371c-27.886 27.886-50.514 60.571-68.114 98.057l310.4-.229V146.285l218.743 183.086-218.743 183.314V366.171H250.057c-5.029 23.314-7.543 47.086-7.543 71.543" data-tags="service" glyph-name="service" unicode=""/><glyph d="M1011.429 759.543c-9.371 13.486-21.943 23.086-37.486 29.029L541.714 945.829c-9.143 3.429-18.057 5.029-27.2 5.029h-2.742c-8.914 0-18.057-1.6-26.971-5.029L52.572 788.343c-15.543-5.714-28.114-15.314-37.486-29.029C5.715 745.828.915 730.743.915 714.285V241.599c0-14.4 3.657-27.657 10.971-40s17.371-21.943 30.171-29.029L474.514-63.773c11.429-6.629 24-9.829 37.486-9.829h2.742c13.486 0 26.057 3.2 37.486 9.829L984.685 172.57c12.8 6.857 22.629 16.686 30.171 29.029s10.971 25.6 10.971 40v472.914c-.229 16.457-5.029 31.314-14.4 45.029Zm-938.972-473.6V360l440.686-210.286L951.772 360v-74.057l-438.629-238.4Zm440.686 14.4L72.457 496.686V579.2l440.686-181.029 438.629 183.771v-85.029L513.143 300.342Z" data-tags="image" glyph-name="image" unicode=""/><glyph d="M-1.371 547.886v146.743c0 9.829 3.657 18.514 10.971 25.829s15.771 10.971 25.829 10.971h954.286c9.829 0 18.514-3.657 25.829-10.971s10.971-15.771 10.971-25.829V547.886c0-10.057-3.657-18.514-10.971-25.829s-15.771-10.971-25.829-10.971H35.201c-10.057 0-18.514 3.657-25.829 10.971-7.086 7.314-10.743 15.771-10.743 25.829m867.885 36.571h86.171v73.371h-86.171Zm-782.4 0h86.171v73.371H84.114Zm139.429 0h86.171v73.371h-86.171Zm139.2 0h86.171v73.371h-86.171Zm139.428 0h86.171v73.371h-86.171ZM-1.371-36.114v146.743c0 9.829 3.657 18.514 10.971 25.829s15.771 10.971 25.829 10.971h954.286c9.829 0 18.514-3.657 25.829-10.971s10.971-15.771 10.971-25.829V-36.114c0-10.057-3.657-18.514-10.971-25.829s-15.771-10.971-25.829-10.971H35.201c-10.057 0-18.514 3.657-25.829 10.971-7.086 7.314-10.743 16-10.743 25.829M866.514.686h86.171v73.371h-86.171Zm-782.4 0h86.171v73.371H84.114Zm139.429 0h86.171v73.371h-86.171Zm139.2 0h86.171v73.371h-86.171Zm139.428 0h86.171v73.371h-86.171ZM-1.371 253.943v146.743c0 9.829 3.657 18.514 10.971 25.829s15.771 10.971 25.829 10.971h954.286c9.829 0 18.514-3.657 25.829-10.971s10.971-15.771 10.971-25.829V253.943c0-10.057-3.657-18.514-10.971-25.829s-15.771-10.971-25.829-10.971H35.201c-10.057 0-18.514 3.657-25.829 10.971-7.086 7.314-10.743 16-10.743 25.829m867.885 36.8h86.171v73.371h-86.171Zm-782.4 0h86.171v73.371H84.114Zm139.429 0h86.171v73.371h-86.171Zm139.2 0h86.171v73.371h-86.171Zm139.428 0h86.171v73.371h-86.171ZM-2.286 779.2c-2.743 5.714.229 12.8 8.686 21.029 0 0 142.171 127.314 152.686 139.657s24 9.829 24 9.829h658.286s11.886 1.371 22.629-10.286c10.514-11.657 151.086-139.2 151.086-139.2 8.457-8.457 11.429-15.314 8.686-21.029s-9.829-8.686-21.486-8.686H18.973c-11.429 0-18.743 2.971-21.257 8.686Z" data-tags="cluster" glyph-name="cluster" unicode=""/><glyph d="M.914 346.743c-2.743 10.743.229 24.229 8.686 40 0 0 141.714 301.714 152.229 325.257s23.771 18.514 23.771 18.514h655.771s11.886 2.743 22.4-19.657S1014.4 386.743 1014.4 386.743c8.457-15.771 11.2-29.257 8.686-40-2.743-10.971-9.829-16.229-21.257-16.229H22.172c-11.429 0-18.514 5.486-21.257 16.229Zm.915-237.715v146.743c0 9.829 3.657 18.514 10.971 25.829s15.771 10.971 25.6 10.971h949.029c9.829 0 18.514-3.657 25.6-10.971 7.314-7.314 10.971-15.771 10.971-25.829V109.028c0-10.057-3.657-18.514-10.971-25.829s-15.771-10.971-25.6-10.971H38.172c-10.057 0-18.514 3.657-25.6 10.971S1.829 98.97 1.829 109.028M864.914 145.6h85.714v73.371h-85.714Zm-778.057 0h85.714v73.371H86.857Zm138.743 0h85.714v73.371H225.6Zm138.286 0H449.6v73.371h-85.714Zm138.743 0h85.714v73.371h-85.714Z" data-tags="container-node" glyph-name="container-node" unicode=""/><glyph d="M799.314 529.6c3.2 5.257 4.8 11.2 4.8 17.371v226.971c0 7.086-2.057 13.714-5.943 19.657-4.114 5.943-9.371 10.057-16 12.571l-184.914 68.571q-5.828 2.057-11.657 2.057h-.914q-5.828 0-11.657-2.057L388.115 806.17c-6.629-2.514-11.886-6.629-16-12.571s-5.943-12.343-5.943-19.657V546.971c0-6.171 1.6-12.114 4.8-17.371s7.543-9.6 12.8-12.571L568.686 443.2c4.8-2.743 10.286-4.343 16-4.343h.914c5.714 0 11.2 1.371 16 4.343l184.914 73.829c5.257 2.971 9.6 7.086 12.8 12.571m-29.028 45.028-185.371-82.286-185.6 82.286v32.229l185.6-78.4 185.371 78.4Zm0 104.229-185.143-84.8-185.6 84.8v35.886l185.6-78.171 185.371 79.314-.229-37.029ZM486.4 355.2l-216 80c-4.571 1.6-8.914 2.514-13.486 2.514h-1.372c-4.571 0-8.914-.914-13.486-2.514l-216-80c-7.771-2.971-13.943-7.771-18.743-14.629-5.029-6.857-7.314-14.629-7.314-22.857V53.028c0-7.314 1.829-14.171 5.486-20.343s8.686-11.2 15.086-14.629l216-86.171c5.714-3.429 11.886-5.029 18.743-5.029h1.372c6.857 0 13.029 1.6 18.743 5.029l216 110.4c6.4 3.429 11.429 8.457 15.086 14.629s5.486 13.029 5.486 20.343v240.457c0 8.229-2.286 16-7.086 22.857-4.571 6.857-10.743 11.657-18.514 14.629ZM472.686 87.543 256-10.971l-216.914 96v37.714L256 31.314l216.686 93.943Zm0 119.314L256 107.886 39.086 206.857v41.829L256 157.486l216.686 92.571ZM1144.457 355.2l-216 80c-4.571 1.6-8.914 2.514-13.486 2.514h-1.372c-4.571 0-8.914-.914-13.486-2.514l-216-80c-7.771-2.971-13.943-7.771-18.743-14.629s-7.086-14.4-7.086-22.857V53.028c0-7.314 1.829-14.171 5.486-20.343s8.686-11.2 15.086-14.629l216-86.171c5.714-3.429 11.886-5.029 18.743-5.029h1.372c6.857 0 13.029 1.6 18.743 5.029l216 110.4c6.4 3.429 11.429 8.457 15.086 14.629s5.486 13.029 5.486 20.343v240.457c0 8.229-2.286 16-7.086 22.857s-10.971 11.657-18.743 14.629m-13.486-267.657L914.285-10.971l-216.914 96v37.714l216.914-91.429 216.686 93.943Zm0 119.314-216.686-98.971-216.914 98.971v41.829l216.914-91.2 216.686 92.571Z" data-tags="registry" glyph-name="registry" unicode=""/><glyph d="M1.6 152.228v180.571c0 10.971 3.2 21.029 9.371 30.4s14.4 16.229 24.686 20.8l184.457 80.686v173.714c0 10.971 3.2 21.029 9.371 30.4s14.4 16.229 24.686 20.8l200.457 83.429c6.629 2.971 13.943 4.343 21.714 4.343s15.086-1.371 21.714-4.343l198.171-83.429c10.286-4.571 18.514-11.657 24.686-20.8 6.171-9.371 9.371-19.429 9.371-30.4V464.685l186.057-80.686c10.514-4.571 18.743-11.657 24.914-20.8 6.171-9.371 9.143-19.429 9.143-30.4V152.228c0-10.514-2.743-20.114-8.229-29.029s-13.029-15.771-22.629-20.343L724.569 5.713c-7.314-4.114-15.543-6.171-24.914-6.171s-17.6 2.057-24.914 6.171l-195.2 97.143c-1.371.686-2.514 1.143-2.971 1.829-.686-.686-1.6-1.143-2.971-1.829L277.942 5.713c-7.314-4.114-15.543-6.171-24.914-6.171s-17.6 2.057-24.914 6.171L32.457 102.856c-9.6 4.571-17.143 11.429-22.629 20.343s-8.229 18.743-8.229 29.029Zm74.971 189.029 176.457-75.2 176.457 75.2-176.457 75.2ZM280.914 69.028l167.543 83.429v136.229L280.914 217.6V69.029Zm3.2 570.743 192.457-82.057 192.457 82.057-192.457 82.057Zm220.343-246.628L672 464.686v115.429l-167.543-71.086Zm19.2-51.886 176.457-75.2 176.457 75.2-176.457 75.2ZM728 69.028l167.543 83.429v136.229L728 217.6V69.029ZM1160.457 476.8c-5.943 8.914-13.943 15.771-24.229 20.343l-186.057 78.4V744c0 10.743-2.971 20.571-9.143 29.486s-14.171 15.771-24 20.343l-187.657 80.914q-9.6 4.114-21.257 4.114-11.315 0-21.257-4.114l-119.086-51.429c6.629 2.743 13.714 4.343 21.257 4.343 7.771 0 14.857-1.371 21.257-4.343l201.6-86.4c10.057-4.571 18.057-11.429 24.229-20.343 6.171-9.143 9.143-18.971 9.143-29.714V517.028l185.143-78.857c10.286-4.571 18.286-11.429 24.229-20.343 5.943-9.143 8.914-18.971 8.914-29.714V211.428c0-10.286-2.743-19.657-8-28.343-1.143-1.829-2.514-3.657-3.886-5.486l87.086 46.4q14.057 6.857 21.943 19.886c7.886 13.029 8 18.057 8 28.343v175.314c.686 10.514-2.286 20.343-8.229 29.257Z" data-tags="replicator" glyph-name="replicator" unicode=""/><glyph d="M1102.4 620.8 952 767.771V658.285H805.257v-73.143H952V475.428ZM297.829 181.943l-150.4 146.971V219.428H.686v-73.143h146.743V36.571ZM1021.486 440l-437.029-1.143v146.971h36.8l74.971 72.457H584.457v137.829c.914 0 2.057-.229 2.971-.229 24.686-18.286 47.086-39.543 67.2-63.314 17.6-20.8 33.371-43.886 47.314-68.571l62.171 60.114c-2.971 5.029-5.943 10.057-9.143 15.086 5.029-2.971 10.057-6.171 14.857-9.6l54.4 52.571 3.2 4.8c-13.029 9.371-26.743 18.286-40.914 26.743-72.686 42.514-152.229 63.771-238.4 63.771s-165.714-21.257-238.4-63.771q-109.029-63.771-172.8-172.8c-42.514-73.143-63.771-152.686-63.771-238.857q0-18.514 1.371-36.343l437.486.686V219.429h-35.657l-74.971-72.457H512V8.001c-1.143 0-2.514.229-3.657.229-23.771 18.057-45.486 38.629-65.143 61.943-18.057 21.257-34.057 44.8-48.457 70.4l-62.171-60.114c3.2-5.486 6.4-10.743 9.6-16-5.257 3.2-10.514 6.629-15.771 10.057l-58.514-56.457c13.257-9.6 27.2-18.743 41.829-27.2 72.686-42.514 152.229-63.771 238.4-63.771s165.714 21.257 238.4 63.771q109.029 63.771 172.8 172.8c63.771 109.029 63.771 152.229 63.771 238.4-.229 12.8-.686 25.371-1.6 37.943Zm-772.572-1.143h-94.857c3.657 40.457 13.714 79.314 29.714 116.8a610 610 0 0 0 14.4 30.171h75.2c-13.714-46.857-21.714-96-24.457-146.971m50.743 219.429h-53.029c6.857 8.229 14.171 16 21.714 23.543 22.171 22.171 46.857 41.371 74.286 57.829a672 672 0 0 1-30.857-55.086c-4.343-8.686-8.457-17.371-12.114-26.286M512 438.857H328.457c3.2 50.286 13.486 98.743 30.4 145.143.229.686.457 1.143.686 1.829H512Zm0 219.429H392c14.857 27.429 32 52.571 51.2 75.429 19.657 23.314 41.6 44.114 65.6 62.171 1.143 0 2.057.229 3.2.229ZM654.629 69.028q-28.457-33.943-63.086-60.343c-2.286-.229-4.8-.457-7.086-.686V146.97H707.2c-15.314-28.571-32.914-54.4-52.571-77.943Zm-70.172 150.4v146.971H769.6c-3.2-50.971-13.257-99.886-30.171-146.971Zm243.429-97.142c-21.029-21.029-44.571-39.543-70.4-55.543 10.057 16.457 19.657 33.371 28.343 51.429 4.8 9.6 9.143 19.2 13.257 29.029h51.429c-7.086-8.686-14.629-17.143-22.629-24.914Zm84.343 126.171c-4.343-10.057-8.914-19.657-13.714-29.029h-73.6c13.486 46.857 21.257 96 23.771 146.971h93.486c-3.657-40.686-13.486-80-29.943-117.943Z" data-tags="route" glyph-name="route" unicode=""/><glyph d="M1009.829 759.086c-9.371 13.486-21.943 23.086-37.486 28.8L539.2 945.6q-13.029 4.8-26.057 4.8h-1.829q-13.029-.343-26.057-4.8L52.343 788.114C36.8 782.4 24.229 772.8 14.857 759.314S.686 730.743.686 714.514V241.828c0-14.4 3.657-27.657 10.971-40s17.371-21.943 30.171-29.029L474.971-63.315c11.2-6.4 23.314-9.6 36.343-9.829h1.829c13.029.229 25.143 3.429 36.343 9.829l433.371 236.343c12.8 6.857 22.857 16.686 30.171 29.029s10.971 25.6 10.971 40v472.229c0 16.457-4.8 31.314-14.171 44.8ZM512 857.6l386.057-142.171L512 575.315 132.114 715.201Zm-73.143-520.457c-53.486 21.257-235.657 93.486-318.171 126.4l219.2 75.429 98.971-35.657Zm146.286 165.943 99.657 35.886L904 463.543c-82.971-32.914-266.286-105.829-318.857-126.629v166.171ZM73.143 632l156.8-53.257-156.8-53.029Zm0-256.457 120.686-49.829-120.686-40.457Zm218.971-93.715 146.743-65.6v-153.6L130.514 229.485ZM585.143 62.4v153.829l147.429 65.829 161.6-52.114Zm366.171 224-120.457 39.314 120.457 50.971Zm0 240.457-156.571 51.657 156.571 54.4Z" data-tags="builder-image" glyph-name="builder-image" unicode=""/><glyph d="M1024 130.235v405.353c-.311 14.638-6.224 29.271-16.809 39.858-10.587 10.585-24.907 16.187-39.541 16.498l-46.699.002c-14.946 0-29.573-5.915-40.162-16.503-10.585-10.585-16.503-25.221-16.187-39.856l-.315-182.281-331.95 331.952C524.57 693.025 512.618 693.025 504.849 685.258L365.596 546.003 116.972 794.62 2.222 679.877l349.625-349.63C359.618 322.478 371.57 322.478 379.34 330.247l133.55 133.55 231.847-230.51-182.75-.313c-14.638.313-29.271-5.605-39.856-16.19-10.585-10.587-16.501-25.221-16.19-39.856v-46.697c0-14.942 5.605-29.266 16.19-39.851 10.585-10.587 25.216-16.503 40.16-16.503h405.353c14.185-.304 28.066 5.554 38.546 15.554a18.67 18.67 0 0 1 8.581 10.306c5.904 9.035 9.23 19.598 9.23 30.496Z" data-tags="trend-down" glyph-name="trend-down" unicode=""/><glyph d="M1014.775 778.658c-1.515 4.432-4.569 8.071-8.581 10.306-10.48 10-24.361 15.858-38.546 15.554l-405.353-.002c-14.944 0-29.575-5.915-40.16-16.501s-16.19-24.907-16.19-39.851v-46.697c-.311-14.633 5.605-29.266 16.19-39.854 10.585-10.585 25.216-16.501 39.854-16.19l182.75-.311-231.847-230.51-133.55 133.55c-7.769 7.769-19.721 7.769-27.493 0L2.224 198.522l114.75-114.745 248.624 248.619 139.253-139.255C512.62 185.374 524.572 185.374 532.341 193.141l331.947 331.95.313-182.281c-.313-14.633 5.605-29.269 16.19-39.854 10.587-10.587 25.216-16.503 40.162-16.503l46.699.002c14.631.311 28.953 5.913 39.538 16.498 10.587 10.587 16.501 25.218 16.811 39.856v405.355c0 10.898-3.326 21.461-9.227 30.491Z" data-tags="trend-up" glyph-name="trend-up" unicode=""/><glyph d="M1010.971 279.771c-9.371 13.486-21.943 23.314-37.486 29.029l-30.171 10.971-129.829-51.886 85.714-31.771L514.97 95.771l-.914.229-382.171 139.657 83.2 31.086-132.8 53.029-30.171-10.971C36.571 303.087 24 293.487 14.628 279.772 6.399 267.886 1.599 254.858.685 240.686H.456v-12.343l.457-.229c1.143-11.657 4.571-22.4 10.743-32.686 7.314-12.343 17.371-21.943 30.171-29.029l433.6-174.857c11.2-6.4 23.314-9.6 36.571-9.829h1.83c13.029.229 25.371 3.429 36.571 9.829l433.829 175.086c12.8 7.086 22.857 16.686 30.171 29.029 6.171 10.286 9.6 21.029 10.743 32.686l.457.229v15.086l-.457-.229c-1.829 13.029-6.4 25.143-14.171 36.343Zm0 241.143c-9.371 13.486-21.943 23.314-37.486 29.029l-30.171 10.971-129.829-51.886 85.714-31.771L514.97 336.914l-.914.229L131.885 476.8l83.2 31.086-132.8 52.8-30.171-10.971C36.571 544.001 24 534.401 14.628 520.686 6.399 508.8 1.599 495.772.685 481.6H.456v-12.343l.457-.229c1.143-11.657 4.571-22.4 10.743-32.686 7.314-12.343 17.371-21.943 30.171-29.029l433.6-174.629c11.2-6.4 23.314-9.6 36.571-9.829h1.83c13.029.229 25.371 3.429 36.571 9.829L984.228 407.77c12.8 7.086 22.857 16.686 30.171 29.029 6.171 10.286 9.6 21.029 10.743 32.686l.457.229v14.857l-.457-.229c-1.829 13.257-6.4 25.371-14.171 36.571ZM780.571 675.2l-115.886-42.514 31.771-87.543 98.057 35.429-.457.229 18.286 6.629Zm-421.257-41.6-115.886 42.514-32.229-89.143 116.114-42.057Zm665.372 89.143c-1.371 13.029-5.943 25.371-13.714 36.571-9.371 13.486-21.943 23.314-37.486 29.029L539.657 946.057q-13.029 4.8-26.057 4.8h-1.83q-13.028-.343-26.057-4.8L51.884 788.343C36.57 782.4 23.998 772.8 14.398 759.314 6.169 747.2 1.598 734.171.455 720H.226v-12.343l.457-.229c1.143-11.657 4.571-22.4 10.743-32.686 7.314-12.343 17.371-21.943 30.171-29.029l98.743-39.771.229.686 32.229 89.371 4.8 1.829-45.943 16.686 383.086 142.629 384.229-142.4-50.057-18.286 2.057-1.829 31.771-88 2.057-1.371 98.971 40c12.8 7.086 22.857 16.686 30.171 29.029 6.171 10.286 9.6 21.029 10.743 32.686l.457.229v15.086l-.457.457ZM512.229 577.828l-82.514 30.171-32-88.457 32.914-11.886H428.8l44.114-17.829c11.2-6.4 23.314-9.6 36.571-9.829h1.83c13.029.229 25.371 3.429 36.571 9.829L592 507.656l34.286 12.343-32 87.086-81.143-29.714Z" data-tags="build" glyph-name="build" unicode=""/><glyph d="M548.343 597.257c-22.4 0-41.6-8-57.371-23.771s-23.771-34.971-23.771-57.371v-60.8h162.057v60.8c0 22.4-8 41.6-23.771 57.371-15.543 16-34.743 23.771-57.143 23.771Zm500.8-169.6c-32 39.771-72.686 65.371-121.829 76.8q23.314 36 23.314 78.857c0 40.457-14.171 74.971-42.971 103.543-28.114 28.571-62.629 42.971-103.086 42.971-36.571 0-68.114-11.886-94.857-35.429-22.4 54.171-58.286 97.829-107.2 131.429s-103.543 50.286-163.657 50.286c-80.686 0-149.714-28.571-206.857-85.714s-85.714-126.171-85.714-206.857c0-5.714.457-13.943 1.143-24.686-44.114-20.571-79.771-51.657-106.971-93.486Q.001 402.971.001 327.542c0-70.4 25.143-130.743 75.2-180.8s110.4-75.2 180.8-75.2h621.714c60.571 0 112.229 21.486 155.2 64.229 42.971 42.971 64.229 94.629 64.229 155.2 0 51.429-16 96.914-48 136.686Zm-318.4-177.6c0-8.457-2.971-15.543-8.914-21.486s-13.029-8.914-21.486-8.914h-304c-8.457 0-15.543 2.971-21.486 8.914s-8.914 13.029-8.914 21.486v175.314c0 8.457 2.971 15.543 8.914 21.486s13.029 8.914 21.486 8.914H406.4v60.8c0 38.857 13.943 72 41.829 99.886s61.257 41.829 100.114 41.829 72.229-13.943 100.114-41.829 41.829-61.029 41.829-99.886v-60.8h10.057c8.457 0 15.543-2.971 21.486-8.914s8.914-13.029 8.914-21.486Z" data-tags="cloud-security" glyph-name="cloud-security" horiz-adv-x="1097" unicode=""/><glyph d="M1041.6 471.771c-29.486 33.371-68.571 63.543-141.714 89.143 41.143 96 .457 151.314-28.343 179.886-28.114 28.571-62.629 42.971-103.086 42.971-36.571 0-68.114-11.886-94.857-35.429-.457.686-.914 1.371-1.371 1.829l-73.371-544.457-453.029 353.6c-43.657-20.571-79.086-51.429-106.057-93.029S-.685 378.742-.685 328.456c0-70.4 25.143-130.743 75.2-180.8s110.4-75.2 180.8-75.2h621.714c60.571 0 112.229 21.486 155.2 64.229 42.971 42.971 64.229 105.6 64.229 155.2 0 24.686 10.971 105.829-54.857 179.886ZM132.114 655.314 553.6 326.171l68.343 506.743c-74.286 102.629-162.286 117.943-217.829 117.943-74.971 0-139.429-26.514-192.457-79.771S131.886 753.6 131.886 678.629c0-5.257.457-13.029 1.143-22.857-.229-.229-.686-.229-.914-.457Z" data-tags="cloud-tenant" glyph-name="cloud-tenant" horiz-adv-x="1097" unicode=""/><glyph d="m367.982-71.022-2.267 217.307c-47.47 43.447-72.411 89.673-72.411 181.175-.805 110.665 38.107 257.682 183.223 257.682h71.461c146.651.219 182.199-146.286 183.15-257.17 0-91.721-20.846-136.85-70.656-182.418l-2.267-216.137ZM658.286 768c0-80.823-65.536-146.359-146.359-146.359S365.568 687.177 365.568 768s65.536 146.359 146.359 146.359S658.286 848.823 658.286 768m-365.715-72.85c0-60.709-49.225-109.861-109.861-109.861S72.849 634.514 72.849 695.15c0 60.709 49.225 109.861 109.861 109.861s109.861-49.225 109.861-109.861m.293-695.443.439 146.871s-74.825 41.326-75.922 183.223c-1.024 79.36 14.19 151.04 75.776 218.917h-89.673C.001 548.572 4.023 434.323 2.487 355.694c1.317-65.902-.805-136.558-.805-136.558L3.364 0ZM951.223 695.15c0-60.709-49.225-109.861-109.861-109.861S731.501 634.514 731.501 695.15c0 60.709 49.225 109.861 109.861 109.861s109.861-49.225 109.861-109.861M733.403-.293l-.439 146.871s71.826 63.781 73.582 183.223c1.024 79.36-11.922 151.04-73.509 218.917h87.406c203.483-.146 201.728-114.395 203.337-193.024-1.317-65.902-.439-136.558-.439-136.558L1023.999 0Z" data-tags="pficon-project" glyph-name="project" unicode=""/><glyph d="M511.543 950.857H438.4L0 841.143V68.572L584.457-73.142H657.6l365.257 146.286v768ZM584.686 4.571l-73.143 17.371v109.486l-365.486 88V108.342l-72.914 17.371v624.229l511.543-113.6Zm365.028 118.172-73.143-29.257v86.171l-146.057-57.6V34.971L657.371 5.714v616L949.714 734.4ZM146.057 512l365.486-82.286v147.429l-365.486 81.143Zm0-219.429 365.486-86.857v147.429l-365.486 85.714ZM876.8 618.514l-146.286-57.6V414.628l146.286 57.6Zm0-219.428-146.286-57.6V195.2L876.8 252.8Z" data-tags="enterprise" glyph-name="enterprise" unicode=""/><glyph d="M56.229 804.8H20.115c-10.057 0-19.2-9.6-19.2-19.886V674.285L.686 90.056c0-10.057 9.371-16.914 19.2-16.914H56c10.057 0 17.143 6.857 17.143 16.914v694.857c0 10.057-7.086 19.886-16.914 19.886Zm950.628 0h-36.114c-10.057 0-19.2-9.6-19.2-19.886V674.285l-.229-584.229c0-10.057 9.371-16.914 19.2-16.914h36.114c10.057 0 17.143 6.857 17.143 16.914v694.857c0 10.057-7.086 19.886-16.914 19.886ZM389.029 585.143h48.914v-74.057h-48.914ZM841.6 877.257H182.4c-20.571 0-35.886-17.829-35.886-38.4V36.343c0-20.571 15.314-36.114 35.886-36.114h659.429c20.571 0 35.886 17.829 35.886 38.4v802.514c-.229 20.571-15.543 36.114-36.114 36.114ZM659.2 249.371h-58.743v-58.743H659.2v-58.971h-58.743V72.914h-58.971v58.743h-58.743V72.914H424v58.743h-58.743v58.971H424v58.743h-58.743v58.743H424v58.743h58.743v-58.743h58.743v58.743h58.971v-58.743H659.2Zm72.686 336h-54.4V438.857H345.372v146.514h-54.629v220.343h441.143Zm-245.029-.228h48.914v-74.057h-48.914Zm98.057 0h48.914v-74.057h-48.914Z" data-tags="flavor" glyph-name="flavor" unicode=""/><glyph d="M1095.92 662.799v101.829c0 21.462-16.439 39.042-36.531 39.042l-1022.858-.037C16.439 803.633 0 786.053 0 764.591V112.29c0-21.462 16.439-39.042 36.531-39.042l314.62-.041s12.557 2.511 12.557 14.612v133.337h75.801V88.732s-.685-15.526 9.818-15.526l610.062.078c20.092 0 36.531 17.58 36.531 39.042v371.699l-.037 178.765.037.007ZM145.666 150.607H72.605v106.167h73.061Zm144.981 231.742c0-7.534-6.165-13.699-13.699-13.699H158.223c-7.534 0-13.699 6.165-13.699 13.699v261.423c0 7.534 6.165 13.699 13.699 13.699h118.725c7.534 0 13.699-6.165 13.699-13.699Zm2.283-231.742h-75.344v106.167h75.344Zm218.043 231.742c0-7.534-6.165-13.699-13.699-13.699H378.549c-7.534 0-13.699 6.165-13.699 13.699v261.423c0 7.534 6.165 13.699 13.699 13.699h118.725c7.534 0 13.699-6.165 13.699-13.699Zm71.919-231.742h-73.061v106.167h73.061Zm1.142 231.742v261.423c0 7.534 6.165 13.699 13.699 13.699h118.725c7.534 0 13.699-6.165 13.699-13.699V382.349c0-7.534-6.165-13.699-13.699-13.699H597.733c-7.534 0-13.699 6.165-13.699 13.699m147.264-231.742h-75.344v106.167h75.344Zm144.981 0h-75.344v106.167h75.344Zm74.203 231.742c0-7.534-6.165-13.699-13.699-13.699H818.058c-7.534 0-13.699 6.165-13.699 13.699v261.423c0 7.534 6.165 13.699 13.699 13.699h118.725c7.534 0 13.699-6.165 13.699-13.699Zm71.92-231.742h-73.061v106.167h73.061ZM-.457 657.47c40.64 0 75.344-51.143 75.344-91.783S40.183 473.675-.457 473.675Zm1096.34-183.795c-40.64 0-76.678 51.143-76.678 91.783s33.905 91.783 76.678 91.783Z" data-tags="memory" glyph-name="memory" horiz-adv-x="1096" unicode=""/><glyph d="M1024 877.257H146.286V657.828H1024Zm-74.743-145.829H730.286v73.143h218.971Zm131.2-455.314c-10.743 10.743-23.543 16-38.857 16h-54.857v146.057c0 19.886-7.314 36.8-21.714 51.429-14.4 14.4-31.543 21.714-51.429 21.714H621.714v110.4h-73.143V511.085H256.228c-19.886 0-36.8-7.314-51.429-21.714-14.4-14.4-21.714-31.543-21.714-51.429V291.885h-54.857c-15.314 0-28.114-5.257-38.857-16s-16-23.543-16-38.857V54.399c0-15.314 5.257-28.114 16-38.857s23.543-16 38.857-16h182.629c15.314 0 28.114 5.257 38.857 16s16 23.543 16 38.857v182.629c0 15.314-5.257 28.114-16 38.857s-23.543 16-38.857 16H256v146.057h292.571V291.885h-54.857c-15.314 0-28.114-5.257-38.857-16s-16-23.543-16-38.857V54.399c0-15.314 5.257-28.114 16-38.857s23.543-16 38.857-16h182.629c15.314 0 28.114 5.257 38.857 16s16 23.543 16 38.857v182.629c0 15.314-5.257 28.114-16 38.857s-23.543 16-38.857 16h-54.857v146.057h292.343V291.885h-54.857c-15.314 0-28.114-5.257-38.857-16s-16-23.543-16-38.857V54.399c0-15.314 5.257-28.114 16-38.857s23.543-16 38.857-16h182.629c15.314 0 28.114 5.257 38.857 16s16 23.543 16 38.857v182.629c0 15.314-5.257 28.343-16 39.086Z" data-tags="network" glyph-name="network" horiz-adv-x="1170" unicode=""/><glyph d="M585.371 293.486c-90.057 0-174.4 8-252.8 24.457-78.4 16.229-140.114 40.457-185.143 72.457v-97.143c0-26.286 19.657-50.743 58.743-73.143s92.343-40.229 159.771-53.257c67.2-13.029 140.571-19.657 219.657-19.657s152.229 6.629 219.657 19.657c67.2 13.029 120.686 30.857 159.771 53.257 39.086 22.629 58.743 46.857 58.743 73.143V390.4c-45.486-32-107.2-56-185.6-72.457-78.4-16.229-162.743-24.457-252.8-24.457Zm0-219.2c-90.057 0-174.4 8-252.8 24.457-78.4 16.229-140.114 40.457-185.143 72.457V74.057c0-26.286 19.657-50.743 58.743-73.143s92.343-40.229 159.771-53.257C433.142-65.372 506.513-72 585.599-72s152.229 6.629 219.657 19.657c67.2 13.029 120.686 30.857 159.771 53.257 39.086 22.629 58.743 46.857 58.743 73.143V171.2c-45.486-32-107.2-56-185.6-72.457-78.4-16.229-162.743-24.457-252.8-24.457Zm0 438.4c-90.057 0-174.4 8-252.8 24.457-78.4 16.229-140.114 40.457-185.143 72.457v-97.143c0-26.286 19.657-50.743 58.743-73.143s92.343-40.229 159.771-53.257c67.2-13.029 140.571-19.657 219.657-19.657s152.229 6.629 219.657 19.657c67.2 13.029 120.686 30.857 159.771 53.257 39.086 22.629 58.743 46.857 58.743 73.143V609.6c-45.486-32-107.2-56-185.6-72.457-78.4-16.229-162.743-24.457-252.8-24.457Zm379.658 365.257c-39.086 22.4-92.571 40.229-159.771 53.257s-140.571 19.657-219.657 19.657c-79.314 0-152.457-6.629-219.886-19.657-67.2-13.257-120.686-30.857-159.543-53.257-39.086-22.629-58.743-46.857-58.743-73.143v-73.143c0-26.286 19.657-50.743 58.743-73.143s92.571-40.229 159.771-53.257S506.514 585.6 585.6 585.6s152.457 6.629 219.657 19.657c67.2 13.029 120.686 30.857 159.771 53.257 39.086 22.629 58.743 46.857 58.743 73.143V804.8c0 26.286-19.657 50.743-58.743 73.143ZM55.543 804.8H19.429c-10.057 0-19.2-9.6-19.2-19.886V674.285L0 90.056c0-10.057 9.371-16.914 19.2-16.914h36.114c10.057 0 17.143 6.857 17.143 16.914v694.857c0 10.057-7.086 19.886-16.914 19.886Zm1097.828 0h-36.114c-10.057 0-19.2-9.6-19.2-19.886V674.285l-.229-584.229c0-10.057 9.371-16.914 19.2-16.914h36.114c10.057 0 17.143 6.857 17.143 16.914v694.857c0 10.057-7.086 19.886-16.914 19.886Z" data-tags="regions" glyph-name="regions" horiz-adv-x="1170" unicode=""/><glyph d="M758.857 438.857c25.143 0 45.714-38.629 45.714-38.629l22.857-34.514h50.286v182.857s-.229 36.571-36.8 36.571H548.343l-25.829 40.686s-15.086 32.457-47.086 32.457H329.142c-36.571 0-36.571-36.571-36.571-36.571V219.428h146.286v146.286c0 57.143 16 73.143 75.429 73.143ZM539.2 731.428c25.143 0 45.714-38.629 45.714-38.629l22.857-34.514h50.286v182.857s-.229 36.571-36.8 36.571H328.686l-25.829 40.686s-15.086 32.457-47.086 32.457H109.714c-36.571 0-36.571-36.571-36.571-36.571V511.999H219.2v146.286c0 57.143 16 73.143 75.429 73.143Zm521.143-438.857H767.772l-25.829 40.686s-15.086 32.457-47.086 32.457H548.571C512 365.714 512 329.143 512 329.143V-73.143h585.143V256s-.229 36.571-36.8 36.571" data-tags="repository" glyph-name="repository" horiz-adv-x="1170" unicode=""/><glyph d="M1020.571 804.571V896c0 30.171-24.686 54.857-54.629 54.857H127.771c-29.943 0-54.629-24.686-54.629-54.857V202.514c0-30.171 24.686-54.857 54.629-54.857h18.514l.914-1.143V-72.915h803.886v219.429l.686 1.143h14.171c30.171 0 54.629 24.686 54.629 54.857v64.229l1.143 2.057v535.771ZM293.029 0h-72.914v146.286h72.914Zm145.6 0h-72.914v146.286h72.914Zm145.828 0h-72.914v146.286h72.914Zm145.829 0h-72.914v146.286h72.914Zm70.628 660.571h-73.143v-73.143h72.914v-73.143h-72.914v-73.143h72.914v-73.143h-72.914v-73.143h-72.914v73.143h-72.914v-73.143h-72.914v73.143h-72.914v-73.143h-72.686v73.143h-72.914v73.143h72.914v73.143h-72.914v73.143h72.914v73.143h-72.914v73.143h72.914v73.143h72.914v-73.143h72.914v73.143h72.914v-73.143h72.914v73.143h72.914v-73.143h72.914v-73.143ZM875.886 0h-72.914v146.286h72.914Z" data-tags="resource-pool" glyph-name="resource-pool" horiz-adv-x="1096" unicode=""/><glyph d="M986.057 145.828H36.343c-9.829 0-18.286-3.429-25.6-10.743C3.657 127.999 0 119.314 0 109.485V-36.572c0-10.057 3.657-18.514 10.971-25.6 7.086-7.086 15.771-10.743 25.6-10.743h949.943c9.829 0 18.286 3.429 25.6 10.743 7.086 7.086 10.743 15.771 10.743 25.6v146.057c0 9.829-3.657 18.514-11.2 25.6-7.086 7.086-15.771 10.743-25.6 10.743M949.714 0H584.457v73.143h365.257Zm62.172 719.771c-7.086 7.086-15.771 10.743-25.6 10.743H36.572c-9.829 0-18.286-3.657-25.6-10.971-7.086-7.086-10.743-15.771-10.743-25.6V547.886c0-9.829 3.429-18.286 10.743-25.6 7.086-7.086 15.771-10.743 25.6-10.743h949.943c9.829 0 18.286 3.429 25.6 10.743 7.086 7.086 10.743 15.771 10.743 25.6v146.057c0 9.829-3.657 18.286-10.971 25.829Zm-62.172-135.543h-219.2v73.143h219.2Zm36.572-146.285H36.572c-9.829 0-18.286-3.429-25.6-10.743C3.886 420.114.229 411.429.229 401.6V255.543c0-9.829 3.429-18.286 10.743-25.6 7.086-7.086 15.771-10.743 25.6-10.743h949.943c9.829 0 18.286 3.429 25.6 10.743 7.086 7.086 10.743 15.771 10.743 25.6V401.6c0 10.057-3.657 18.514-10.971 25.6-7.086 7.086-15.771 10.743-25.6 10.743Zm-36.572-145.829H365.257v73.143h584.457ZM33.6 767.314h956.114c33.829 0 41.143 29.943 24.686 46.4s-99.429 101.714-114.286 116.571-32 20.571-48 20.571H170.743c-16 0-33.143-5.714-48-20.571S24.914 830.171 8.457 813.714s-9.143-46.4 25.143-46.4" data-tags="server" glyph-name="server" unicode=""/><glyph d="M58.743 658.514c39.086-22.4 92.571-40.229 159.771-53.257S359.085 585.6 438.171 585.6s152.457 6.629 219.657 19.657 120.686 30.857 159.771 53.257c39.086 22.629 58.743 46.857 58.743 73.143V804.8c0 26.286-19.657 50.743-58.743 73.143s-92.571 40.229-159.771 53.257-140.571 19.657-219.657 19.657c-79.314 0-152.457-6.629-219.886-19.657-67.2-13.257-120.686-30.857-159.543-53.257C19.656 855.314-.001 831.086-.001 804.8v-73.143c0-26.286 19.657-50.743 58.743-73.143Zm1016.686-649.6L941.258 97.371c-13.257 9.371-26.743 13.029-37.257 11.657-.457 0-.914-.229-1.371-.229 24.686 37.257 36.571 82.971 30.857 130.514-12.8 106.286-109.486 181.943-215.771 168.914S535.773 298.741 548.573 192.456 658.059 10.513 764.344 23.542c47.771 5.714 89.143 28.571 119.314 61.257.914-10.971 7.771-23.771 20.571-34.971l118.171-108.8c10.743-9.371 24-13.257 36.571-11.657 10.743 1.371 21.029 6.629 28.114 15.771 15.314 19.657 10.286 48.457-11.657 63.771ZM756.8 87.543c-70.857-8.686-135.543 41.829-144 112.686s41.829 135.543 112.686 144 135.543-41.829 144-112.686-41.829-135.314-112.686-144M58.743 439.314c39.086-22.4 92.343-40.229 159.771-53.257 67.2-13.029 140.571-19.657 219.657-19.657 26.971 0 53.029.686 78.629 2.286 42.514 62.4 110.629 106.743 191.543 116.571 50.743 6.171 99.886-2.057 143.314-21.486 16.457 15.543 24.686 31.543 24.686 48.686V609.6c-45.486-32-107.2-56-185.6-72.457-78.4-16.229-162.743-24.457-252.8-24.457s-174.4 8-252.8 24.457C106.743 553.372 45.029 577.6 0 609.6v-97.143c0-26.286 19.657-50.743 58.743-73.143m0-219.2c39.086-22.4 92.343-40.229 159.771-53.257 67.2-13.029 140.571-19.657 219.657-19.657 13.486 0 26.971.229 40.229.686-2.971 11.429-5.257 23.086-6.629 35.2-4.8 38.4-1.143 76.114 9.371 111.086a1340 1340 0 0 0-43.2-.686c-90.057 0-174.4 8-252.8 24.457C106.742 334.172 45.028 358.4-.001 390.4v-97.143c0-26.286 19.657-50.743 58.743-73.143ZM508.571 75.886c-23.086-1.143-46.629-1.829-70.4-1.829-90.057 0-174.4 8-252.8 24.457-78.4 16.229-140.114 40.457-185.143 72.457V73.828c0-26.286 19.657-50.743 58.743-73.143s92.343-40.229 159.771-53.257c67.2-13.029 140.571-19.657 219.657-19.657S590.628-65.6 658.056-52.572c6.857 1.371 13.486 2.743 20.114 4.114-71.086 17.143-132.343 62.171-169.6 124.343Z" data-tags="storage-domain" glyph-name="storage-domain" horiz-adv-x="1097" unicode=""/><glyph d="M73.143 950.857H0v-80.686h73.143ZM0 801.6h73.143V664.457H0Zm0-411.429v-24.914h112.229V438.4H0Zm0 205.715h73.143V458.743H0Zm536.457 354.971H673.6v-73.143H536.457Zm-205.714 0h137.143v-73.143H330.743Zm411.428 0h137.143v-73.143H742.171Zm-617.142 0h137.143v-73.143H125.029ZM797.943 438.4h81.371v-73.143h-81.371Zm8.228 188.343h73.143V489.6h-73.143ZM386.514 438.4h137.143v-73.143H386.514Zm205.715 0h137.143v-73.143H592.229Zm421.942 366.171H879.314v27.886h-73.143v-27.886H146.514V622.628h-.229V144.914h.229v-72h438.857V0H365.485v-73.143h585.829V-.229H731.428v72.914l438.857.229v731.657Zm10.058-584.685H293.258v145.371h24.686V438.4h-24.686v184.229h-.686v35.2h731.657Z" data-tags="virtual-machine" glyph-name="virtual-machine" horiz-adv-x="1170" unicode=""/><glyph d="M890.743 804.8c-39.086 22.4-92.571 40.229-159.771 53.257s-140.571 19.657-219.657 19.657c-79.314 0-152.457-6.629-219.886-19.657-67.2-13.257-120.686-30.857-159.543-53.257-39.086-22.629-58.743-46.857-58.743-73.143V583.086c0-26.286 19.657-50.743 58.743-73.143s92.571-40.229 159.771-53.257 140.571-19.657 219.657-19.657 152.457 6.629 219.657 19.657c67.2 13.029 120.686 30.857 159.771 53.257 39.086 22.629 58.743 46.857 58.743 73.143v148.571c0 26.286-19.657 50.743-58.743 73.143ZM511.086 364.114c-90.057 0-174.4 8-252.8 24.457-78.4 16.229-140.114 40.457-185.143 72.457V217.599c0-26.286 19.657-50.743 58.743-73.143s92.343-40.229 159.771-53.257c67.2-13.029 140.571-19.657 219.657-19.657s152.229 6.629 219.657 19.657c67.2 13.029 120.686 30.857 159.771 53.257 39.086 22.629 58.743 46.857 58.743 73.143v243.429c-45.486-32-107.2-56-185.6-72.457-78.4-16.229-162.743-24.457-252.8-24.457Z" data-tags="volume" glyph-name="volume" unicode=""/><glyph d="M984.457 804.571c-52.8 74.514-131.2 123.657-220.571 138.743-88.457 15.086-177.371-5.486-250.057-57.6-44.8-32-79.314-73.371-102.857-119.771-80.914 8-160.914-13.029-227.429-60.571C33.143 597.943-.686 385.829 108.114 232.458c52.8-74.743 131.429-124.114 221.257-138.971 23.086-3.886 46.4-5.257 69.257-4.343 3.657-5.943 7.543-11.657 11.657-17.371C463.085-2.97 541.714-52.341 631.542-67.198c40.229-6.629 80.686-5.943 119.543 1.6 46.171 9.143 90.286 28.114 130.057 56.229 72.914 52.343 120.686 130.514 134.857 219.886 10.743 68.8.686 138.057-28.571 200 29.029 41.371 48.457 89.371 56.686 141.029 13.943 89.143-7.086 178.971-59.657 253.029Zm-427.886 21.486C587.2 848 621.485 862.628 657.6 869.714c30.629 5.943 62.4 6.4 93.943.914 70.171-11.657 131.429-50.286 172.8-108.571 60.8-85.943 64.686-195.429 19.2-281.6-52.343 64.914-125.257 107.886-207.771 121.829-23.314 3.886-46.857 5.257-69.943 4.343-3.657 5.943-7.543 11.886-11.657 17.6-42.286 59.657-100.8 102.857-168.229 125.486 17.6 29.257 41.371 55.314 70.629 76.343ZM440.229 168.228c-31.086 74.971-26.286 159.086 10.514 228.114 40.686-51.2 94.4-88.686 155.429-109.257-17.6-29.257-41.143-55.314-70.4-76.343-29.029-20.571-61.486-34.971-95.543-42.514m194.742 187.2c-54.857 17.371-102.4 52.114-136.686 100.114-.686.914-1.143 1.829-1.829 2.743 9.6 9.6 20.343 18.743 31.771 26.743 29.029 20.8 61.486 34.971 95.543 42.514 22.857-55.543 26.057-116.343 11.2-172.114ZM485.714 544.686c-8.229-5.943-16-11.886-23.543-18.514-17.143 50.971-18.514 105.143-5.257 155.2 50.514-15.771 94.629-46.171 128-88.229-34.971-10.286-68.571-26.514-99.2-48.457m214.857-12.115c7.543-.686 15.086-1.6 22.629-2.971 70.171-11.657 131.429-50.286 172.8-108.571.686-.914 1.143-1.6 1.829-2.514-9.6-9.6-20.343-18.743-31.771-26.971-46.4-33.371-101.257-50.057-157.943-48.457 2.286 9.143 4.114 18.743 5.714 28.114 8.457 54.857 3.886 109.714-13.257 161.371ZM341.486 165.943C271.086 177.829 209.6 216.457 168 274.972c-85.486 120.457-59.429 286.629 58.057 370.514 30.629 21.943 64.914 36.571 101.029 43.657 18.743 3.886 37.943 5.486 57.371 4.8-18.286-74.514-11.429-155.429 22.857-228.114-61.029-87.086-77.486-200-43.429-302.629-7.314.686-14.857 1.6-22.4 2.743ZM837.714 50.514C781.485 10.057 712.457-5.943 643.428 5.485c-65.371 10.971-123.2 45.257-164.343 96.914 35.2 10.286 68.8 26.743 99.886 48.914 43.886 31.543 78.857 72.457 102.629 119.543 32.914-3.2 65.829-1.6 97.6 4.571 46.4 9.143 90.514 28.114 130.057 56.229 8 5.714 15.543 11.657 22.857 18.057 35.886-107.886.914-230.629-94.4-299.2Z" data-tags="zone" glyph-name="zone" horiz-adv-x="1095" unicode=""/><glyph d="M954.743 694.171c45.714-78.4 68.571-164.114 68.571-256.914s-22.857-178.514-68.571-256.914S846.857 39.772 768.457-5.943 604.343-74.514 511.543-74.514 333.029-51.657 254.629-5.943 114.058 101.943 68.343 180.343C22.857 258.743 0 344.457 0 437.257s22.857 178.514 68.571 256.914 107.886 140.343 186.286 186.057 164.114 68.571 256.914 68.571 178.514-22.857 256.914-68.571c78.171-45.714 140.343-107.657 186.057-186.057ZM677.257 829.714c-52.571 22.629-107.886 34.057-165.486 34.057-57.829 0-112.914-11.429-165.486-34.057s-97.829-53.029-136-90.971c-37.943-37.943-68.343-83.2-90.971-136-22.629-52.571-34.057-107.886-34.057-165.486 0-57.829 11.429-112.914 34.057-165.486s53.029-97.829 90.971-136c37.943-37.943 83.2-68.343 136-90.971 52.571-22.629 107.886-34.057 165.486-34.057 57.829 0 112.914 11.429 165.486 34.057s97.829 53.029 136 90.971c37.943 37.943 68.343 83.2 90.971 136 22.629 52.571 34.057 107.886 34.057 165.486 0 57.829-11.429 112.914-34.057 165.486s-53.029 97.829-90.971 136c-37.943 37.943-83.429 68.343-136 90.971M217.143 585.143c-21.943-44.114-34.286-93.714-34.286-146.286 0-181.486 147.657-329.143 329.371-329.143 181.486 0 329.143 147.657 329.143 329.143 0 52.571-12.343 102.171-34.286 146.286Z" data-tags="resources-almost-full" glyph-name="resources-almost-full" unicode=""/><glyph d="M511.488 949.321c6.656 0 13.093-.878 19.456-2.487s12.142-4.169 17.481-7.461c5.998-3.365 11.118-7.314 15.506-11.995s8.119-10.021 11.483-15.945l437.979-842.24c6.656-11.995 9.801-23.918 9.509-35.913s-3.877-23.918-10.459-35.913c-3.365-5.998-7.168-11.118-11.483-15.506s-9.509-8.192-15.506-11.483c-5.339-2.706-10.971-4.827-16.969-6.51s-12.288-2.487-18.944-2.487H73.509c-6.656 0-12.946.805-18.944 2.487s-11.63 3.803-16.969 6.51c-5.998 3.291-11.118 7.095-15.506 11.483S13.898-8.63 10.607-2.633C3.951 9.362.513 21.285.148 33.28s2.779 23.918 9.509 35.913l437.979 842.24c3.291 5.998 7.095 11.264 11.483 15.945s9.509 8.631 15.506 11.995c5.339 3.291 11.118 5.778 17.481 7.461s12.8 2.487 19.456 2.487ZM132.974 73.289H892.27L511.488 814.884Zm450.413 83.237c-2.121-5.632-7.534-9.509-13.97-9.509h-106.13c-11.045 0-24.576.585-24.576 14.994v44.544c0 8.558 6.437 14.994 14.994 14.994H569.49c8.485 0 14.994-6.437 14.994-14.994v-44.544c0-1.975-.366-3.803-1.024-5.486Zm.439 145.408c-2.121-5.632-7.534-9.509-13.97-9.509h-106.13c-11.045 0-24.576.585-24.576 14.994v225.134c0 8.558 6.437 14.994 14.994 14.994h115.785c8.485 0 14.994-6.437 14.994-14.994V307.419c0-1.975-.366-3.803-1.024-5.486Z" data-tags="pficon-warning-triangle-o" glyph-name="warning-triangle" unicode=""/><glyph d="M954.514 695.314c-45.943 78.4-107.886 140.343-186.057 186.057S604.8 949.942 512 949.942s-178.286-22.857-256.457-68.571C177.372 835.885 115.2 773.714 69.714 695.542 24 617.371 1.143 531.656 1.143 439.085s22.629-178.286 68.343-256.686S177.372 42.056 255.543-3.658 419.2-72.229 512-72.229 690.286-49.372 768.457-3.658c78.4 45.714 140.343 107.886 186.057 186.057s68.571 163.657 68.571 256.457q0 139.2-68.571 256.457ZM809.143 252.8c0-29.943-11.657-58.286-32.914-79.543-21.029-21.257-49.371-32.914-79.543-32.914H327.543c-30.171 0-58.286 11.657-79.543 32.914-21.257 21.029-32.914 49.371-32.914 79.543v209.143c0 29.943 11.657 58.286 32.914 79.543 7.314 7.314 15.314 13.257 24 18.286v6.629c0 64.686 24.457 123.429 70.629 169.6s104.914 70.629 169.6 70.629 123.429-24.457 169.371-70.629c46.171-46.171 70.629-104.914 70.629-169.6v-6.629c8.686-5.029 16.686-10.971 24-18.286 21.257-21.257 32.914-49.371 32.914-79.543ZM696.914 496.686h-21.943V566.4c0 44.571-16 82.743-48 114.743s-70.171 48-114.743 48-82.743-16-114.743-48-48-70.171-48-114.743v-69.714h-21.943c-9.6 0-17.829-3.429-24.686-10.057-6.857-6.857-10.057-15.086-10.057-24.686V252.8c0-9.6 3.429-17.829 10.057-24.686 6.857-6.857 15.086-10.057 24.686-10.057h369.143c9.6 0 17.829 3.429 24.686 10.057 6.857 6.857 10.057 15.086 10.057 24.686v209.143c0 9.6-3.429 17.829-10.057 24.686-6.629 6.629-14.857 10.057-24.457 10.057m-277.485 0V566.4c0 25.6 9.143 47.543 27.2 65.6s40 27.2 65.6 27.2 47.543-9.143 65.6-27.2 27.2-40 27.2-65.6v-69.714Z" data-tags="private" glyph-name="private" unicode=""/><glyph d="M78.629 225.143c-3.657 3.657-5.486 8-5.486 12.8v55.086H0v-55.086c0-25.143 8.914-46.629 26.971-64.686 17.829-17.829 39.543-26.971 64.686-26.971h91.429v73.143H91.429c-5.029.457-9.143 2.286-12.8 5.714m918.628 480c-17.829 17.829-39.543 26.971-64.686 26.971H310.857c-25.143 0-46.629-8.914-64.686-26.971-17.829-17.829-26.971-39.543-26.971-64.686V18.514c0-25.143 8.914-46.629 26.971-64.686C264-64.001 285.714-73.143 310.857-73.143H932.8c25.143 0 46.629 8.914 64.686 26.971 17.829 17.829 26.971 39.543 26.971 64.686v621.943c-.229 25.143-9.143 46.629-27.2 64.686M951.086 18.514c0-5.029-1.829-9.143-5.486-12.8s-8-5.486-12.8-5.486H310.857c-5.029 0-9.143 1.829-12.8 5.486s-5.486 8-5.486 12.8v621.943c0 5.029 1.829 9.143 5.486 12.8s8 5.486 12.8 5.486H932.8c5.029 0 9.143-1.829 12.8-5.486s5.486-8 5.486-12.8ZM0 512.686h73.143V365.257H0Zm0 219.428h73.143V584.685H0Zm73.143 127.772c0 5.029 1.829 9.143 5.486 12.8s8 5.486 12.8 5.486h55.314v73.143H91.429c-25.143 0-46.629-8.914-64.686-26.971Q0 897.601 0 859.887v-55.771h73.143Zm145.828 91.428H366.4v-73.143H218.971Zm507.2-78.628c3.657-3.657 5.486-8 5.486-12.8v-91.429H804.8v91.429c0 25.143-8.914 46.629-26.971 64.686-17.829 17.829-39.543 26.971-64.686 26.971H657.6V878.4h55.543c5.029-.229 9.371-2.057 13.029-5.714ZM438.4 951.314h147.429v-73.143H438.4Z" data-tags="blueprint" glyph-name="blueprint" unicode=""/><glyph d="M346.971 731.428c-35.657 0-65.829-12.343-90.743-37.257s-37.257-55.086-37.257-90.743 12.343-65.829 37.257-90.743 55.086-37.257 90.743-37.257 65.829 12.343 90.743 37.257 37.257 55.086 37.257 90.743-12.343 65.829-37.257 90.743c-25.143 24.914-55.314 37.257-90.743 37.257m329.6 0c-35.657 0-65.829-12.343-90.743-37.257-24.686-24.686-37.257-55.086-37.257-90.743s12.343-65.829 37.257-90.743 55.086-37.257 90.743-37.257 65.829 12.343 90.743 37.257 37.257 55.086 37.257 90.743-12.343 65.829-37.257 90.743c-24.686 24.914-55.086 37.257-90.743 37.257m65.6-193.142c-18.057-18.057-40-27.2-65.371-27.2s-47.314 9.143-65.371 27.2-27.2 40-27.2 65.371 9.143 47.314 27.2 65.371 40 27.2 65.371 27.2 47.314-9.143 65.371-27.2 27.2-40 27.2-65.371-8.914-47.314-27.2-65.371m-65.6-135.315c-35.657 0-65.829-12.343-90.743-37.257s-37.257-55.086-37.257-90.743 12.343-65.829 37.257-90.743 55.086-37.257 90.743-37.257 65.829 12.343 90.743 37.257 37.257 55.086 37.257 90.743-12.343 65.829-37.257 90.743c-24.686 24.914-55.086 37.257-90.743 37.257m65.6-193.371c-18.057-18.057-40-27.2-65.371-27.2s-47.314 9.143-65.371 27.2-27.2 40-27.2 65.371 9.143 47.314 27.2 65.371 40 27.2 65.371 27.2 47.314-9.143 65.371-27.2 27.2-40 27.2-65.371-8.914-47.314-27.2-65.371m-395.2 193.371c-35.657 0-65.829-12.343-90.743-37.257s-37.257-55.086-37.257-90.743 12.343-65.829 37.257-90.743 55.086-37.257 90.743-37.257 65.829 12.343 90.743 37.257 37.257 55.086 37.257 90.743-12.343 65.829-37.257 90.743-55.086 37.257-90.743 37.257m65.6-193.371c-18.057-18.057-40-27.2-65.371-27.2s-47.314 9.143-65.371 27.2-27.2 40-27.2 65.371 9.143 47.314 27.2 65.371 40 27.2 65.371 27.2 47.314-9.143 65.371-27.2 27.2-40 27.2-65.371-9.143-47.314-27.2-65.371m542.172 485.943c-45.714 78.4-107.657 140.343-186.057 186.057S604.8 950.171 512 950.171 333.714 927.314 255.314 881.6 114.971 773.943 69.257 695.543.686 531.657.686 438.857s22.857-178.286 68.571-256.686S176.914 41.828 255.314-3.886 419.2-72.457 512-72.457 690.286-49.6 768.686-3.886s140.343 107.657 186.057 186.057 68.571 163.886 68.571 256.686-22.857 178.286-68.571 256.686M904 273.371c-22.629-52.571-53.029-97.829-90.971-135.771s-83.2-68.343-135.771-90.971C624.687 24 569.601 12.572 511.772 12.572c-57.6 0-112.914 11.429-165.486 34.057S248.457 99.658 210.515 137.6c-37.943 37.943-68.343 83.2-90.971 135.771S85.487 381.028 85.487 438.857c0 57.6 11.429 112.914 34.057 165.486s53.029 97.829 90.971 135.771c37.943 37.943 83.2 68.343 135.771 90.971s107.657 34.057 165.486 34.057c57.6 0 112.914-11.2 165.486-34.057 52.571-22.629 97.829-53.029 135.771-90.971s68.343-83.2 90.971-135.771c22.629-52.571 34.057-107.657 34.057-165.486 0-57.6-11.2-112.914-34.057-165.486" data-tags="tenant" glyph-name="tenant" unicode=""/><glyph d="M512 731.428c-161.371 0-292.571-131.2-292.571-292.571S350.629 146.286 512 146.286s292.571 131.2 292.571 292.571S673.371 731.428 512 731.428m404.571-605.942c49.371 63.543 84.114 138.971 98.971 221.257 1.829 9.829-5.714 18.971-15.771 18.971h-79.314c-7.543 0-13.943-5.257-15.543-12.571C871.543 199.772 750.171 78.857 596.8 45.714c-7.314-1.6-12.8-8-12.8-15.543v-79.543c0-10.057 9.143-17.6 18.971-15.771 82.286 14.629 157.714 49.371 221.257 98.286 6.4 5.029 15.314 4.343 21.029-1.371L945.6-68.571c2.971-2.971 7.086-4.8 11.2-4.8h51.2c8.914 0 16 7.086 16 16v48.914c0 4.343-1.6 8.229-4.8 11.2L917.943 104c-5.714 6.171-6.171 15.086-1.371 21.486ZM418.743 942.171c-81.6-15.086-156.8-49.6-219.886-98.971-6.4-5.029-15.543-4.343-21.257 1.371L76.343 946.057c-3.2 3.2-7.086 4.8-11.429 4.8H16c-8.914 0-16-7.086-16-16v-48.914c0-4.343 1.6-8.229 4.8-11.2l101.257-101.257c5.714-5.714 6.171-14.857 1.371-21.257-49.371-63.543-84.114-138.971-98.971-221.257-1.829-9.829 5.714-18.971 15.771-18.971h79.314c7.543 0 13.943 5.257 15.543 12.571 33.143 152.686 153.371 273.143 306.057 306.971 7.314 1.6 12.571 8 12.571 15.543V926.4c0 10.057-9.143 17.6-18.971 15.771ZM920.457 512h79.314c10.057 0 17.6 9.143 15.771 18.971-14.857 81.6-49.371 156.571-98.057 220.114-5.029 6.4-4.343 15.314 1.371 21.029l100.343 100.114c2.971 2.971 4.8 7.086 4.8 11.429v51.2c0 8.914-7.086 16-16 16h-48.914c-4.343 0-8.229-1.6-11.2-4.8L846.628 844.8c-5.714-5.714-14.857-6.171-21.257-1.371C761.828 892.8 686.4 927.543 604.114 942.4c-9.829 1.829-18.971-5.714-18.971-15.771v-79.314c0-7.543 5.257-13.943 12.571-15.543 152.914-33.371 273.6-154.057 307.2-307.2 1.6-7.314 8-12.571 15.543-12.571ZM103.543 365.714H24c-10.057 0-17.6-9.143-15.771-18.971 14.857-82.286 49.6-157.714 98.971-221.257 5.029-6.4 4.343-15.543-1.371-21.257L4.8 3.2C1.6 0 0-3.886 0-8.229v-48.914c0-8.914 7.086-16 16-16h48.914c4.343 0 8.229 1.6 11.2 4.8L177.371 32.914c5.714 5.714 14.857 6.171 21.029 1.371 63.543-49.371 138.971-84.114 221.257-98.971 9.829-1.829 18.971 5.714 18.971 15.771v79.314c0 7.543-5.257 13.943-12.571 15.543-152.914 33.371-273.6 154.057-307.2 307.2-1.371 7.314-7.771 12.571-15.314 12.571Z" data-tags="middleware" glyph-name="middleware" unicode=""/><glyph d="m348.571 721.371 1.143-322.743 317.029-56.457L830.857 436.8l.229 304.229L511.543 790.4Zm309.943 153.372-228.343 27.2L272 858.286l240.686-33.371Zm362.743-45.257v.229l-.686-.229-299.886 36.571-145.143-50.286 313.6-44.343-.457-299.2 125.486 80.229 7.086 276.343.457.229ZM885.486 122.971l121.371 116.343 6.629 245.257-124.8-84.343Zm-535.772 195.2-1.371-296.914 314.057-94.4L830.171 82.514l.457 281.829-163.886-107.886Zm101.257 484.343-239.771 35.2L2.743 777.6 14.4 461.714l271.086-50.286-2.743 325.257ZM25.6 117.714l259.886-80.229v293.943L15.315 386.285Z" data-tags="Bundle" glyph-name="bundle" unicode=""/><glyph d="M866.971 522.743c7.086 7.086 10.743 15.771 10.743 25.829v365.486c0 9.829-3.657 18.286-10.971 26.057-7.086 7.086-15.771 10.743-25.829 10.743h-219.2c-9.829 0-18.286-3.657-25.829-10.971-7.086-7.086-10.743-15.771-10.743-25.829V548.572c0-9.829 3.429-18.286 10.743-25.829 7.086-7.086 15.771-10.743 25.829-10.743h219.429c9.829 0 18.514 3.429 25.829 10.743Zm-62.4 135.543H658.285v73.143h146.286Zm0 146.285h-73.143v73.143h73.143ZM548.343 438.857h-219.2c-9.829 0-18.286-3.657-25.829-10.971-7.086-7.086-10.743-15.771-10.743-25.6V-37.028c0-9.829 3.429-18.286 10.743-25.6 7.086-7.086 15.771-10.743 25.829-10.743h219.429c9.829 0 18.286 3.429 25.829 10.743 7.086 7.086 10.743 15.771 10.743 25.6v439.543c0 9.829-3.657 18.286-10.971 25.829-7.086 6.857-16 10.514-25.829 10.514ZM512 146.286H365.714v73.143H512Zm0 146.285h-73.143v73.143H512ZM512 0H365.714v73.143H512ZM292.571 914.057q0 14.743-10.971 26.057c-7.086 7.086-15.771 10.743-25.6 10.743H36.114c-9.829 0-18.286-3.657-25.6-10.971C3.657 932.572 0 923.886 0 914.057V621.714c0-9.829 3.429-18.514 10.743-25.829 7.086-7.086 15.771-10.743 25.6-10.743h220.114c9.829 0 18.286 3.429 25.6 10.743 7.086 7.086 10.743 15.771 10.743 25.829v292.343Zm-73.142-255.771H73.143v73.143h146.286Zm0 146.285h-73.143v73.143h73.143ZM512 808v66.743h-1.6c-50.743 0-99.429-8.686-144.686-24.457v-72C410.057 797.257 458.971 808 510.4 808ZM150.857 512.228H79.543c-4.114-24.229-6.4-49.371-6.4-74.971 0-129.829 56.457-246.4 146.286-326.4v107.429C172.115 280 144 357.257 144 441.143c0 24.229 2.286 48 6.857 71.086Zm653.714-289.6V114.057c88 80 143.314 195.2 143.314 323.657v.914h-70.857c-.686-81.143-27.429-155.657-72.457-216m146.286 656.229H1024V584h-73.143ZM658.286 365.714h73.143V0h-73.143Z" data-tags="domain" glyph-name="domain" unicode=""/><glyph d="M841.143 731.428H1024V-.001H841.143Zm-146.057 0H36.572c-9.829 0-18.514-3.657-25.6-10.743-7.314-7.543-10.971-16-10.971-25.829V-36.801c0-9.829 3.657-18.514 10.743-25.6 7.314-7.314 15.771-10.743 25.6-10.743h658.743c9.829 0 18.514 3.657 25.6 10.743 7.314 7.314 10.743 15.771 10.743 25.6v731.657c0 9.829-3.657 18.514-10.743 25.6-7.314 7.314-15.771 10.971-25.6 10.971Zm-36.8-658.285H219.429v109.714h438.857Zm0 219.428H73.143v109.714h585.143Zm0 219.429H438.857v109.714h219.429ZM22.4 768h686.629c11.429 0 18.743 2.971 21.257 8.686 2.743 5.714-.229 12.8-8.686 21.257 0 0-142.4 130.514-152.914 142.857s-24 9.829-24 9.829H183.543s-11.886 1.371-22.629-10.286C150.4 928.457 9.6 797.943 9.6 797.943c-8.457-8.457-11.429-15.314-8.686-21.257S10.743 768 22.4 768m744.914 183.314H646.171l194.743-182.171 183.086-1.6Z" data-tags="server group" glyph-name="server-group" unicode=""/><glyph d="M957.257 568.457c-25.6-10.057-54.857-18.514-87.543-25.143-21.714-4.8-43.886-8.686-66.514-11.886l.457-302.857c13.029 1.829 26.057 4.114 38.629 6.4 27.657 5.714 52.8 12.343 74.971 19.657s42.057 15.771 58.514 24.457c16 9.371 28.343 19.429 36.343 29.714 8 10.514 11.886 21.029 11.886 32.229v262.4c-18.743-13.257-41.143-24.914-66.743-34.971M364.343 729.828h.686c35.429 0 69.943-1.6 102.629-4.571 34.971-3.2 66.286-7.771 95.314-13.714 31.543-6.629 58.514-13.486 82.514-21.029l.914-.457c27.429-9.143 50.743-19.2 71.314-30.857l.914-.457c24-14.171 43.2-30.171 56.914-47.771q7.543-9.6 13.029-19.886c18.286 2.286 35.886 5.257 53.029 8.686 27.657 5.029 52.8 11.429 74.971 18.743s42.057 16 58.514 25.371c16 9.371 28.343 19.2 36.343 29.029s11.886 20.571 11.886 31.543v124.343c0 10.514-3.886 21.029-11.886 31.314s-20.343 20.343-36.343 29.714c-16.457 9.371-35.886 17.6-58.286 25.143-22.171 7.086-47.314 13.486-74.971 19.2-27.886 5.714-57.143 9.6-87.543 12.571s-62.629 4.114-96 4.114c-32.914 0-64.457-1.371-95.086-4.343s-60.114-7.086-88.457-12.571c-27.657-5.486-52.8-11.886-74.971-19.2s-41.6-15.771-57.6-25.143c-16.229-9.371-28.571-19.429-36.8-29.714s-12.571-20.8-12.571-31.314V727.315c23.086 1.829 47.314 2.514 71.543 2.514Zm300.343-463.085c-23.543-9.143-50.057-17.143-79.543-23.314v62.4c13.943 3.429 26.971 7.086 39.086 11.2 22.171 7.314 42.057 16 58.514 25.371 16 9.371 28.343 19.2 36.343 29.029s11.886 20.571 11.886 31.543v133.257c0 10.514-3.886 21.029-11.886 31.314s-20.343 20.343-36.343 29.714c-16.457 9.371-35.886 17.6-58.286 25.143-22.171 7.086-47.314 13.486-74.971 19.2-27.886 5.714-57.143 9.6-87.543 12.571s-62.629 4.343-96 4.343c-32.914 0-64.457-1.371-95.086-4.343s-60.343-7.086-88.457-12.571c-27.657-5.486-52.8-11.886-74.971-19.2s-41.6-15.771-57.6-25.143c-16.229-9.371-28.571-19.429-36.8-29.714S.458 546.743.458 536.229V402.972c0-11.2 4.343-21.714 12.571-31.543 8.457-10.057 20.571-19.657 36.8-29.029s35.429-18.057 57.6-25.371c11.886-4.114 24.914-7.771 38.857-11.2v-62.4c-29.486 6.4-55.771 14.171-79.086 23.314-25.6 10.057-48 21.714-66.743 34.971V48.457c0-11.2 4.343-21.943 12.571-32.229 8.457-10.286 20.571-20.343 36.8-29.714 16.229-8.914 35.429-17.143 57.6-24.457 22.171-7.771 47.771-14.171 75.886-19.657 27.657-5.486 57.143-9.6 88-11.657 30.629-2.514 62.171-3.657 95.086-3.657 33.371 0 65.371 1.143 95.543 3.657 30.171 2.286 59.657 6.629 88 11.886 27.657 5.714 52.8 12.343 74.971 19.657s42.057 15.771 58.514 24.457c16 9.371 28.343 19.429 36.343 29.714 8 10.514 11.886 21.029 11.886 32.229v253.029c-18.971-13.257-41.371-24.914-66.971-34.971ZM558.857 126.4c-.686-1.6-1.829-3.2-3.2-4.571l-53.943-53.714c-1.6-1.6-2.971-2.514-4.571-3.2s-3.429-.914-5.257-.914c-1.6 0-2.971.229-4.571.914s-2.971 1.829-3.886 3.2L365.715 184.686 248.229 67.657c-.914-1.6-2.286-2.514-3.886-3.2s-3.2-.914-4.571-.914c-1.829 0-3.657.229-5.257.914s-3.2 1.829-4.571 3.2l-53.943 54.171c-1.6 1.6-2.514 2.971-3.2 4.571s-.914 3.2-.914 4.571c0 1.829.229 3.657.914 5.257s1.829 2.971 3.2 3.886l117.486 117.486-115.2 114.743c-1.6 1.6-2.514 2.971-3.2 4.571s-.914 3.2-.914 4.571c0 1.829.229 3.657.914 5.257s1.829 2.971 3.2 3.886l53.943 54.4c1.6.914 2.971 1.829 4.571 2.514s3.2.914 4.571.914c1.829 0 3.657-.229 5.257-.686s2.971-1.6 3.886-2.743l115.657-115.657 115.2 115.2c.914 1.6 2.286 2.286 3.886 2.743s3.2.686 4.571.686c1.829 0 3.657-.229 5.257-.914s3.2-1.6 4.571-2.514l53.257-54.629c1.6-.914 2.514-2.286 3.2-3.886s.914-3.429.914-5.257c0-1.6-.229-2.971-.914-4.571s-1.829-3.2-3.2-4.571L438.171 257.37l117.486-117.486c1.6-.914 2.514-2.286 3.2-3.886s.914-3.429.914-5.257c0-1.371-.229-2.743-.914-4.343Z" data-tags="pficon-degraded" glyph-name="degraded" unicode=""/><glyph d="M1018.971-5.029c-3.657 3.2-8 5.029-13.257 5.029H658.285v737.6c37.943 13.486 66.286 47.086 72 87.771v-.457l275.429 53.943c5.257.914 9.371 3.429 11.886 7.543 2.743 4.114 3.429 8.686 2.514 13.943l-7.086 35.886c-.914 5.257-3.429 9.371-7.543 11.886s-8.686 3.429-13.943 2.514l-275.2-53.714v-.457c-18.971 32.457-54.171 54.4-94.629 54.4-55.314 0-101.029-40.914-108.571-93.943v.457l-275.429-53.714c-5.257-.914-9.371-3.429-11.886-7.543s-3.429-8.686-2.514-13.943l7.086-35.886c.914-5.257 3.429-9.371 7.543-11.886 4.114-2.743 8.686-3.429 13.943-2.514L527.314 785.6c13.029-22.171 33.6-39.314 58.057-48V0H237.714c-5.486 0-10.057-1.371-13.257-5.029s-5.029-8-5.029-13.257v-36.571c0-5.257 1.371-10.057 5.029-13.257s8-5.029 13.257-5.029h768c5.486 0 10.057 1.371 13.257 5.029s5.029 8 5.029 13.257v36.571c0 5.486-1.371 10.057-5.029 13.257M621.714 886.857c25.143 0 45.714-20.571 45.714-45.714s-20.571-45.714-45.714-45.714S576 816 576 841.143s20.571 45.714 45.714 45.714m601.6-456.686c-13.257 26.743-30.857 59.886-52.571 99.657s-42.057 77.029-61.257 111.771c-18.971 34.743-38.4 69.714-58.286 105.143s-30.4 54.4-32 57.143c-6.857 12.571-17.6 18.743-32 18.743s-25.143-6.4-32-18.743c-1.6-2.743-12.114-21.714-32-57.143s-39.314-70.4-58.286-105.143l-61.029-111.771c-21.715-39.771-39.314-73.143-52.571-99.657C738.057 403.428 731.2 388.114 731.2 384c0-27.886 8.914-52.8 26.514-74.971 17.829-22.171 40-39.314 67.2-52.114 26.971-12.571 54.629-21.943 82.514-28.343s54.857-9.143 80-9.143 51.657 3.2 79.771 9.371 55.543 15.771 82.514 28.343q40.457 18.857 67.2 52.114c26.743 33.257 26.514 47.086 26.514 74.971 0 3.886-6.629 19.429-20.114 45.943ZM768 384l219.429 402.286L1206.858 384Zm-328.457-.229c-21.714 39.771-42.057 77.029-61.257 111.771-18.971 34.743-38.4 69.714-58.286 105.143s-30.4 54.4-32 57.143c-6.857 12.571-17.6 18.743-32 18.743s-25.143-6.4-32-18.743c-1.6-2.743-12.114-21.714-32-57.143s-39.314-70.4-58.286-105.143c-18.971-34.743-39.314-72-61.257-111.771C50.743 344 33.143 310.628 19.886 284.114 6.629 257.371 0 241.828 0 237.714c0-27.886 8.914-52.8 26.514-74.971 17.829-22.171 40-39.314 67.2-52.114 26.971-12.571 54.629-21.943 82.514-28.343s54.629-9.143 79.771-9.143 51.657 3.2 79.771 9.371 55.543 15.771 82.514 28.343q40.456 18.857 67.2 52.114c26.744 33.257 26.514 47.086 26.514 74.971 0 4.114-6.629 19.657-20.114 46.171-13.257 26.514-30.629 59.886-52.343 99.657ZM256 640l149.714-274.286H106.285Z" data-tags="pficon-rebalance" glyph-name="rebalance" horiz-adv-x="1243" unicode=""/><glyph d="M954.743 694.171c45.714-78.4 68.571-164.114 68.571-256.914s-22.857-178.514-68.571-256.914S846.857 39.772 768.457-5.943 604.343-74.514 511.543-74.514 333.029-51.657 254.629-5.943 114.058 101.943 68.343 180.343C22.857 258.743 0 344.457 0 437.257s22.857 178.514 68.571 256.914 107.886 140.343 186.286 186.057 164.114 68.571 256.914 68.571 178.514-22.857 256.914-68.571c78.171-45.714 140.343-107.657 186.057-186.057ZM677.257 829.714c-52.571 22.629-107.886 34.057-165.486 34.057-57.829 0-112.914-11.429-165.486-34.057s-97.829-53.029-136-90.971c-37.943-37.943-68.343-83.2-90.971-136-22.629-52.571-34.057-107.886-34.057-165.486 0-57.829 11.429-112.914 34.057-165.486s53.029-97.829 90.971-136c37.943-37.943 83.2-68.343 136-90.971 52.571-22.629 107.886-34.057 165.486-34.057 57.829 0 112.914 11.429 165.486 34.057s97.829 53.029 136 90.971c37.943 37.943 68.343 83.2 90.971 136 22.629 52.571 34.057 107.886 34.057 165.486 0 57.829-11.429 112.914-34.057 165.486s-53.029 97.829-90.971 136c-37.943 37.943-83.429 68.343-136 90.971M217.143 292.571c53.943-108.343 165.943-182.857 295.086-182.857 128.914 0 240.914 74.514 294.857 182.857Z" data-tags="resources-almost-empty" glyph-name="resources-almost-empty" unicode=""/><glyph d="M657.262 657.92c0-120.978-98.085-219.063-219.063-219.063S219.136 536.942 219.136 657.92s98.085 219.063 219.063 219.063 219.063-98.085 219.063-219.063M38.766-73.143c7.826 102.327 37.303 305.737 148.041 389.559 0 0 59.758 50.322 150.821 49.883l201.143.366c91.136 0 150.821-50.322 150.821-50.322s133.12-88.722 149.285-389.559Z" data-tags="pficon-user" glyph-name="user" horiz-adv-x="878" unicode=""/><glyph d="M804.571 511.122c0-80.896-65.536-146.432-146.432-146.432s-146.432 65.536-146.432 146.432 65.536 146.432 146.432 146.432 146.432-65.536 146.432-146.432M475.429 255.268s43.447 36.571 109.714 36.279l146.286.293c66.267 0 109.714-36.571 109.714-36.571s109.714-73.143 109.714-327.607H365.714s0 244.517 109.714 327.607Zm-36.572 475.283c0-80.896-65.536-146.432-146.432-146.432s-146.432 65.536-146.432 146.432 65.536 146.432 146.432 146.432 146.432-65.536 146.432-146.432m38.839-364.837c-160.768-27.429-189.733-218.697-189.733-218.697H-.074s0 244.59 109.714 327.607c0 0 43.447 36.571 109.714 36.279l146.286.293c29.477 0 17.92 3.73 36.571-4.315 0 0-2.267-111.47 75.41-141.166Z" data-tags="pficon-users" glyph-name="users" horiz-adv-x="951" unicode=""/><glyph d="M696.832 417.792c-24.064 30.939-71.314 58.368-112.128 58.368v328.631c40.741 0 72.338 33.573 71.095 72.704-1.17 37.449-29.769 73.362-68.827 73.362H216.65c-22.089 0-40.741-10.021-56.174-25.381s-20.773-31.451-20.773-52.882c0-22.089 5.413-33.938 20.773-49.298s34.085-23.04 56.174-23.04V478.501c-40.814 0-77.385-20.261-109.861-60.709s-34.962-108.91-34.962-159.744c0-10.752 4.023-19.895 12.069-27.575s17.408-11.557 28.087-11.557h214.455l46.153-276.041c1.317-4.681 3.877-8.558 7.534-11.557s7.826-4.535 12.507-4.535h19.31c4.681 0 8.85 1.682 12.507 4.974s5.851 7.68 6.51 13.019l42.496 273.993h218.039c10.679 0 20.041 3.877 28.087 11.557s12.069 16.896 12.069 27.575c0 50.761-3.145 118.784-34.962 159.744Z" data-tags="pficon-thumb-tack" glyph-name="thumb-tack" horiz-adv-x="805" unicode=""/><glyph d="M1022.171 53.394 742.034 333.531c52.955 82.725 75.41 187.246 52.955 296.887C767.414 767.561 631.661 906.24 495.176 936.74c-291.767 64.585-545.865-189.294-481.28-481.207C48.931 303.835 168.008 187.172 318.39 156.159c112.859-22.894 216.649.293 300.178 53.979L898.705-69.999ZM403.749 801.06c140.288 0 254.025-113.737 254.025-254.025S544.037 293.01 403.749 293.01 149.724 406.747 149.724 547.035c.146 140.215 113.81 253.879 254.025 254.025" data-tags="pficon-search" glyph-name="search" unicode=""/><glyph d="M838.949 654.482c-17.115 162.597-159.232 296.375-325.193 296.375-177.079 0-329.216-152.21-329.216-329.216V513.243H72.485c-38.181-.073-69.047-30.939-69.12-69.12V.146c0-38.107 31.013-73.728 69.12-71.387h880.201c38.107-2.267 69.12 33.28 69.12 71.387v444.05c-.073 38.181-30.939 69.047-69.12 69.12l-623.104-.073v108.398c.219 101.595 82.505 183.954 184.101 184.101 88.869 0 161.426-65.682 178.176-149.358l147.017-1.829Zm64.877-580.9H362.423c-25.088 0-34.231 11.41-34.231 36.498s9.143 36.498 34.231 36.498h541.403c25.088 0 45.641-11.41 45.641-36.498s-20.553-36.425-45.641-36.425Zm0 218.989H362.423c-25.088 0-34.231 11.41-34.231 36.498s9.143 36.498 34.231 36.498h541.403c25.088 0 45.641-11.41 45.641-36.498s-20.553-36.425-45.641-36.425Z" data-tags="pficon-unlocked" glyph-name="unlocked" unicode=""/><glyph d="M952.32 512.951H840.192v108.471c0 177.152-150.016 329.435-327.168 329.435S183.589 798.574 183.589 621.422V512.951H71.461c-38.107 0-69.193-31.086-69.193-69.193V-.512c0-38.107 31.086-73.728 69.193-71.461H952.32c38.107-2.267 69.193 33.353 69.193 71.461v444.27c0 38.107-31.086 69.193-69.193 69.193M328.777 621.422c.219 101.595 82.651 184.027 184.247 184.247 101.595 0 181.979-82.871 181.979-184.247V512.951H328.777ZM904.558 72.923H362.789c-25.088 0-34.231 11.41-34.231 36.498s9.143 36.498 34.231 36.498h541.769c25.088 0 45.641-11.41 45.641-36.498s-20.553-36.498-45.641-36.498v-.073Zm0 219.136H362.789c-25.088 0-34.231 11.41-34.231 36.498s9.143 36.498 34.231 36.498h541.769c25.088 0 45.641-11.41 45.641-36.498s-20.553-36.498-45.641-36.498v-.073Z" data-tags="pficon-locked" glyph-name="locked" unicode=""/><glyph d="M965.486 804.571s-58.514 80.457-109.714 102.4c-160.914 87.771-358.4 29.257-446.171-124.343-51.2-87.771-58.514-190.171-21.943-277.943L.001 124.342V-73.144h182.857V36.57h109.714v109.714h146.286l138.971 168.229c168.229-65.829 358.4 21.943 424.229 190.171 36.571 102.4 21.943 212.114-36.571 299.886Zm-80.457-73.143c0-58.514-43.886-102.4-102.4-102.4s-102.4 43.886-102.4 102.4 43.886 102.4 102.4 102.4c58.514 7.314 102.4-43.886 102.4-102.4" data-tags="pficon-key" glyph-name="key" unicode=""/><glyph d="M512-73.143c-70.656 0-136.997 13.385-199.022 40.009S196.827 30.208 150.455 76.873 67.438 177.883 40.448 239.835-.073 368.201-.073 438.857s13.531 136.997 40.521 199.022 63.634 116.151 110.007 162.523 100.498 83.017 162.523 110.007S441.344 950.93 512 950.93s136.997-13.531 199.022-40.521 116.151-63.707 162.523-110.007c46.299-46.299 83.017-100.498 110.007-162.523s40.521-128.366 40.521-199.022-13.531-136.997-40.521-199.022-63.707-116.37-110.007-162.962C827.246 30.208 773.047-6.437 711.022-33.134S582.656-73.143 512-73.143M361.545 796.379c-46.958-20.334-88.137-48.128-123.465-83.529s-63.195-76.507-83.529-123.465-30.501-97.134-30.501-150.455 10.167-103.643 30.501-150.967c20.334-47.323 48.128-88.503 83.529-123.465s76.507-62.683 123.465-83.017S458.679 50.98 512 50.98s103.497 10.167 150.455 30.501 88.137 47.982 123.465 83.017 63.122 76.142 83.529 123.465q30.501 70.985 30.501 150.967c0 79.982-10.167 103.497-30.501 150.455s-48.128 88.137-83.529 123.465-76.507 63.122-123.465 83.529C615.497 816.713 565.321 826.88 512 826.88s-103.497-10.167-150.455-30.501m397.02-466.066c-21.211-45.861-53.248-82.505-96.037-109.934S573.001 179.2 522.459 179.2c-35.255 0-68.901 6.875-100.937 20.699s-59.758 32.329-83.017 55.589-41.765 50.907-55.589 83.017-20.699 65.682-20.699 100.937c0 34.597 6.51 67.584 19.456 99.109s30.574 58.807 52.882 81.847 48.859 41.618 79.799 55.735c30.939 14.117 63.707 21.87 98.231 23.259 9.947.439 21.358-6.217 25.234-15.506 4.096-9.289 4.681-19.675-2.779-26.697-19.456-17.627-36.571-38.107-46.885-61.513s-17.701-45.787-17.701-71.753c0-33.426 5.998-61.952 22.455-90.185s38.839-50.615 67.072-67.072 59.099-24.722 92.526-24.722c26.624 0 52.443 5.705 77.239 17.262 9.289 4.096 17.408 2.56 24.357-4.389 3.145-3.145 5.12-7.022 5.925-11.483s.293-8.85-1.536-12.873Z" data-tags="asleep" glyph-name="asleep" unicode=""/><glyph d="M512.073-73.143C229.742-73.143 0 156.526 0 438.857c0 282.258 229.742 512 512.073 512 282.258 0 511.927-229.742 511.927-512 0-282.331-229.669-512-511.927-512m0 899.657c-213.797 0-387.73-173.861-387.73-387.657 0-213.87 173.861-387.657 387.73-387.657 213.723 0 387.657 173.787 387.657 387.73 0 213.723-173.934 387.584-387.657 387.584M730.77 316.196c.073 4.901-1.829 9.216-5.632 13.019L615.424 438.929l110.373 110.373c3.803 3.803 5.632 8.119 5.632 13.019s-1.975 9.216-5.778 13.093l-77.166 77.166c-3.877 3.803-8.192 5.778-13.093 5.778s-9.216-1.829-13.019-5.632L512 542.353 401.627 652.726c-3.803 3.803-8.119 5.632-13.019 5.632s-9.216-1.975-13.093-5.778l-77.166-77.166c-3.803-3.877-5.778-8.192-5.778-13.093s1.829-9.216 5.632-13.019l110.373-110.373-110.373-109.714c-3.803-3.803-5.632-8.119-5.632-13.019s1.975-9.216 5.778-13.093l77.166-77.166c3.877-3.877 8.192-5.778 13.093-5.778s9.216 1.829 13.019 5.632L512 335.505l109.714-109.714c3.803-3.803 8.119-5.632 13.019-5.632s9.216 1.975 13.093 5.778l77.166 77.166c3.877 3.803 5.778 8.192 5.851 13.019Z" data-tags="pficon-error-circle-o" glyph-name="error-circle-o" unicode=""/><glyph d="M128.293 658.286c4.681 0 8.631-1.682 11.995-4.974s4.974-7.387 4.974-11.995v-37.083c0-4.681-1.682-8.997-4.974-13.019s-7.387-5.998-11.995-5.998H18.067c-5.339 0-10.021 1.975-14.043 5.998s-5.998 8.631-5.998 14.043v36.059c0 5.339 1.975 9.509 5.998 12.507s8.631 4.535 14.043 4.535h110.226Zm0-147.383c4.681 0 8.631-1.682 11.995-4.974s4.974-7.387 4.974-11.995v-37.083c0-4.681-1.682-8.997-4.974-13.019s-7.387-5.998-11.995-5.998H18.067c-5.339 0-10.021 1.975-14.043 5.998s-5.998 8.631-5.998 14.043v36.059c0 5.339 1.975 9.509 5.998 12.507s8.631 4.535 14.043 4.535h110.226Zm0-145.043c4.681 0 8.631-1.536 11.995-4.535s4.974-7.168 4.974-12.507v-37.083c0-4.681-1.682-8.997-4.974-13.019s-7.387-5.998-11.995-5.998H18.067c-5.339 0-10.021 1.975-14.043 5.998s-5.998 8.631-5.998 14.043v36.059c0 5.339 1.975 9.509 5.998 12.507s8.631 4.535 14.043 4.535Zm0-146.358c4.681 0 8.631-1.682 11.995-4.974s4.974-7.68 4.974-13.019V165.45c0-5.339-1.682-10.021-4.974-14.043s-7.387-5.998-11.995-5.998H18.067c-5.339 0-10.021 1.975-14.043 5.998s-5.998 8.631-5.998 14.043v36.059c0 5.339 1.975 9.655 5.998 13.019s8.631 4.974 14.043 4.974Zm570.66 435.638c8.777 0 16.165-3.072 22.309-9.216s9.216-13.531 9.216-22.309V177.297c0-8.777-3.072-16.53-9.216-23.186s-13.531-10.021-22.309-10.021H250.002c-9.362 0-16.969 2.926-22.747 8.777s-8.777 13.385-8.777 22.747v445.44c0 9.362 2.926 17.335 8.777 24.064s13.385 10.021 22.747 10.021Zm-461.458 76.288c-5.339 0-10.021 1.682-14.043 4.974s-5.998 7.314-5.998 11.995h1.024v110.226q0 8.01 5.486 14.043c5.486 6.033 8.192 5.998 13.531 5.998h37.083c4.681 0 8.631-1.975 11.995-5.998s4.974-8.704 4.974-14.043V748.397c0-4.681-1.682-8.704-4.974-11.995s-7.68-4.974-13.019-4.974Zm39.351-659.236c4.681 0 8.631-1.975 11.995-5.998s4.974-8.338 4.974-13.019V-57.051c0-5.339-1.682-9.509-4.974-12.507s-7.68-4.535-13.019-4.535h-36.059c-5.339 0-10.021 1.536-14.043 4.535s-5.998 7.168-5.998 12.507h1.024V53.175c0 4.681 1.829 8.997 5.486 13.019s8.192 5.998 13.531 5.998Zm108.032 659.236c-5.339 0-10.021 1.682-14.043 4.974s-5.998 7.314-5.998 11.995v110.226c0 5.339 1.975 10.021 5.998 14.043s8.631 5.998 14.043 5.998h36.059c5.339 0 9.655-1.975 13.019-5.998s4.974-8.704 4.974-14.043V748.397c0-4.681-1.682-8.704-4.974-11.995s-7.68-4.974-13.019-4.974Zm36.059-659.236c5.339 0 9.655-1.975 13.019-5.998s4.974-8.338 4.974-13.019V-57.051c0-5.339-1.682-9.509-4.974-12.507s-7.68-4.535-13.019-4.535h-36.059c-5.339 0-10.021 1.536-14.043 4.535s-5.998 7.168-5.998 12.507V53.175c0 4.681 1.975 8.997 5.998 13.019s8.631 5.998 14.043 5.998Zm110.3 659.236c-4.681 0-8.997 1.682-13.019 4.974s-5.998 7.314-5.998 11.995v110.226c0 5.339 1.975 10.021 5.998 14.043s8.631 5.998 14.043 5.998h36.059c5.339 0 9.509-1.975 12.507-5.998s4.535-8.704 4.535-14.043V748.397c0-4.681-1.536-8.704-4.535-11.995s-7.168-4.974-12.507-4.974ZM568.32 72.192c5.339 0 9.509-1.975 12.507-5.998s4.535-8.338 4.535-13.019V-57.051c0-5.339-1.536-9.509-4.535-12.507s-7.168-4.535-12.507-4.535h-37.083c-4.681 0-8.997 1.536-13.019 4.535s-5.998 7.168-5.998 12.507V53.175c0 4.681 1.975 8.997 5.998 13.019s8.631 5.998 14.043 5.998Zm108.032 659.236c-4.681 0-8.997 1.682-13.019 4.974s-5.998 7.314-5.998 11.995v110.226c0 5.339 1.975 10.021 5.998 14.043s8.631 5.998 14.043 5.998h36.059c5.339 0 9.509-1.975 12.507-5.998s4.535-8.704 4.535-14.043V748.397c0-4.681-1.536-8.704-4.535-11.995s-7.168-4.974-12.507-4.974Zm37.01-659.236c5.339 0 9.509-1.975 12.507-5.998s4.535-8.338 4.535-13.019V-57.051c0-5.339-1.536-9.509-4.535-12.507s-7.168-4.535-12.507-4.535h-37.083c-4.681 0-8.997 1.536-13.019 4.535s-5.998 7.168-5.998 12.507V53.175c0 4.681 1.975 8.997 5.998 13.019s8.631 5.998 14.043 5.998Zm220.453 586.094c5.339 0 9.509-1.682 12.507-4.974s4.535-7.387 4.535-11.995v-37.083c0-4.681-1.536-8.997-4.535-13.019s-7.168-5.998-12.507-5.998H823.589c-4.681 0-9.216 1.975-13.531 5.998s-6.51 8.631-6.51 14.043v36.059c0 5.339 2.121 9.509 6.51 12.507s8.85 4.535 13.531 4.535h110.226Zm0-147.383c5.339 0 9.509-1.682 12.507-4.974s4.535-7.387 4.535-11.995v-37.083c0-4.681-1.536-8.997-4.535-13.019s-7.168-5.998-12.507-5.998H823.589c-4.681 0-9.216 1.975-13.531 5.998s-6.51 8.631-6.51 14.043v36.059c0 5.339 2.121 9.509 6.51 12.507s8.85 4.535 13.531 4.535h110.226Zm0-145.043c5.339 0 9.509-1.536 12.507-4.535s4.535-7.168 4.535-12.507v-37.083c0-4.681-1.536-8.997-4.535-13.019s-7.168-5.998-12.507-5.998H823.589c-4.681 0-9.216 1.975-13.531 5.998s-6.51 8.631-6.51 14.043v36.059c0 5.339 2.121 9.509 6.51 12.507s8.85 4.535 13.531 4.535Zm0-146.358c5.339 0 9.509-1.682 12.507-4.974s4.535-7.68 4.535-13.019V165.45c0-5.339-1.536-10.021-4.535-14.043s-7.168-5.998-12.507-5.998H823.589c-4.681 0-9.216 1.975-13.531 5.998s-6.51 8.631-6.51 14.043v36.059c0 5.339 2.121 9.655 6.51 13.019s8.85 4.974 13.531 4.974Z" data-tags="pficon-cpu" glyph-name="cpu" horiz-adv-x="951" unicode=""/><glyph d="M964.681 549.01h-85.358v268.727c-1.609 47.031-16.238 59.977-50.688 59.977H64.731C8.411 877.714 0 872.375 0 817.737V306.615c0-71.168 0-87.186 64.731-88.649h80.53V73.436c0-23.845 13.751-35.84 30.939-35.84 140.142 0 210.286 71.607 262.656 180.663h73.143v-80.384c.293-64.805.293-64.805 62.171-64.585h159.013c55.442-93.842 199.68-146.432 199.68-146.432 11.41 0 19.602 10.459 19.602 21.87V73.29h12.215c59.319-.146 59.319-.146 59.831 64.585v352.11c-.512 58.514-.512 58.514-59.831 58.953ZM368.786 364.544C357.376 160.768 219.428 144.75 219.428 144.75v220.014H108.763v403.237H768V364.545Z" data-tags="pficon-chat" glyph-name="chat" unicode=""/><glyph d="M921.6-73.143H36.571C14.628-73.143 0-58.514 0-36.572v804.571c0 21.943 14.629 36.571 36.571 36.571h292.571L219.428 658.284h-73.143V73.141h658.286v73.143L950.857 292.57V-36.573c0-21.943-14.629-36.571-29.257-36.571Zm-256 804.571c-219.429 0-394.971-131.657-373.029-351.086 14.629-138.971 87.771-160.914 146.286-204.8-58.514 124.343 36.571 321.829 263.314 336.457h29.257V292.57l365.714 329.143-365.714 329.143V731.427Z" data-tags="arrow" glyph-name="arrow" horiz-adv-x="1097" unicode=""/><glyph d="M512 109.714c-181.486 0-329.143 147.657-329.143 329.143S330.514 768 512 768s329.143-147.657 329.143-329.143S693.486 109.714 512 109.714m442.743 584.457c45.714-78.4 68.571-164.114 68.571-256.914s-22.857-178.514-68.571-256.914S846.857 39.772 768.457-5.943 604.343-74.514 511.543-74.514 333.029-51.657 254.629-5.943 114.058 101.943 68.343 180.343C22.857 258.743 0 344.457 0 437.257s22.857 178.514 68.571 256.914 107.886 140.343 186.286 186.057 164.114 68.571 256.914 68.571 178.514-22.857 256.914-68.571c78.171-45.714 140.343-107.657 186.057-186.057ZM677.257 829.714c-52.571 22.629-107.886 34.057-165.486 34.057-57.829 0-112.914-11.429-165.486-34.057s-97.829-53.029-136-90.971c-37.943-37.943-68.343-83.2-90.971-136-22.629-52.571-34.057-107.886-34.057-165.486 0-57.829 11.429-112.914 34.057-165.486s53.029-97.829 90.971-136c37.943-37.943 83.2-68.343 136-90.971 52.571-22.629 107.886-34.057 165.486-34.057 57.829 0 112.914 11.429 165.486 34.057s97.829 53.029 136 90.971c37.943 37.943 68.343 83.2 90.971 136 22.629 52.571 34.057 107.886 34.057 165.486 0 57.829-11.429 112.914-34.057 165.486s-53.029 97.829-90.971 136c-37.943 37.943-83.429 68.343-136 90.971" data-tags="resources-full" glyph-name="resources-full" unicode=""/><glyph d="M983.552 639.049c-26.99 62.025-63.707 116.151-110.007 162.523-46.373 46.299-100.498 83.017-162.523 110.007S582.656 952.1 512 952.1s-136.997-13.531-199.022-40.521-116.224-63.707-162.523-110.007c-46.373-46.373-83.017-100.498-110.007-162.523S-.073 510.683-.073 440.027s13.531-137.07 40.521-199.022 63.634-116.297 110.007-162.962S250.953-5.34 312.978-31.964 441.344-71.973 512-71.973s136.997 13.312 199.022 40.009S827.173 31.378 873.545 78.043c46.299 46.592 83.017 100.937 110.007 162.962s40.521 128.366 40.521 199.022-13.531 136.997-40.521 199.022M869.449 289.06c-20.407-47.323-48.201-88.43-83.529-123.465s-76.507-62.683-123.465-83.017S565.321 52.077 512 52.077 408.503 62.244 361.545 82.578s-88.064 48.055-123.465 83.017-63.195 76.142-83.529 123.465c-20.334 47.25-30.501 97.646-30.501 150.967s10.167 103.497 30.501 150.455 48.274 88.064 83.529 123.465 76.507 63.195 123.465 83.529S458.679 827.977 512 827.977s103.497-10.167 150.455-30.501c46.958-20.407 88.137-48.201 123.465-83.529s63.195-76.507 83.529-123.465 30.501-97.134 30.501-150.455-10.167-103.643-30.501-150.967M584.997 603.136v72.704c0 2.633-.366 5.193-1.024 7.461s-1.975 4.169-4.023 5.486c-1.975 1.975-4.023 3.511-5.998 4.535s-4.315 1.536-7.022 1.536H456.923c-2.706 0-4.974-.512-7.022-1.536s-4.023-2.487-5.998-4.535c-1.975-1.317-3.365-3.145-4.023-5.486s-1.024-4.827-1.024-7.461v-72.704c0-2.706.293-5.193 1.024-7.461s1.975-4.169 4.023-5.486c1.975-1.975 4.023-3.365 5.998-4.023s4.315-1.024 7.022-1.024H566.93c2.633 0 4.974.293 7.022 1.024s4.023 1.975 5.998 4.023c1.975 1.317 3.365 3.145 4.023 5.486s1.024 4.827 1.024 7.461m18.432-310.565h-18.432v201.143c0 .146-.146.219-.146.366-.073 2.194-.293 4.462-.878 6.363-.658 2.267-1.975 4.535-4.023 6.51-1.975 1.317-4.023 2.487-5.998 3.511S569.637 512 566.93 512H420.571c-10.021 0-18.286-8.265-18.286-18.286v-36.571c0-10.021 8.265-18.286 18.286-18.286h18.286V292.571h-18.286c-10.021 0-18.286-8.265-18.286-18.286v-36.571c0-10.021 8.265-18.286 18.286-18.286h182.857c10.021 0 18.286 8.265 18.286 18.286v36.571c0 10.021-8.265 18.286-18.286 18.286Z" data-tags="pficon-info" glyph-name="info" unicode=""/><glyph d="m193.536 38.18 67.438 116.736c-5.705 5.047-11.337 10.24-16.75 15.579-34.231 33.938-61.221 73.801-80.896 119.662-6.729 15.653-12.215 31.598-16.677 47.909l-134.875-9.289c6.729-30.574 16.311-60.27 28.818-89.015 26.99-62.025 63.634-116.37 110.007-162.962 13.678-13.751 28.014-26.624 43.081-38.619Zm-17.847 570.368-120.32 60.709c-5.266-10.24-10.167-20.699-14.848-31.378C18.139 586.46 5.047 532.114 1.243 474.77l135.387 9.362c4.242 34.231 13.093 66.999 26.697 98.304 3.877 8.923 7.973 17.627 12.434 26.112Zm807.79 29.331c-26.99 62.025-63.707 116.151-110.007 162.523s-100.498 83.017-162.523 110.007-128.366 40.521-199.022 40.521V812.617c50.834-.293 98.67-10.094 143.579-29.55 45.568-19.675 85.431-46.665 119.662-80.896s61.221-74.094 80.896-119.662 29.55-94.135 29.55-145.847-9.874-100.425-29.55-146.359c-19.675-45.861-46.665-85.723-80.896-119.662s-74.094-60.709-119.662-80.457-94.135-29.55-145.847-29.55c-42.935 0-83.822 6.802-122.514 20.407L319.634-35.914c60.123-24.795 124.197-37.23 192.293-37.23 70.656 0 136.997 13.385 199.022 40.009S827.1 30.207 873.472 76.872s83.017 101.01 110.007 162.962S1024 368.2 1024 438.856s-13.531 136.997-40.521 199.022Z" data-tags="in-progress" glyph-name="in-progress" unicode=""/><glyph d="m984.064 846.555-24.503 17.408c-57.49 49.371-146.359 54.272-195.73-3.218L557.568 621.568l53.321-44.325 194.633 213.431c7.68 9.143 30.354 5.632 39.278-2.267s16.896-26.331 9.216-35.474L656.091 537.966l41.326-35.035 11.483 12.654 183.881 203.776c7.68 9.143 25.746 5.632 34.743-2.267s16.896-26.331 9.216-35.474L745.618 462.045l51.419-43.593 192.512 225.499c49.371 57.49 48.128 160.622-5.486 202.606Zm18.871-735.671L484.279 570.806c19.163 35.986 29.989 77.019 29.989 120.613 0 142.043-115.127 257.17-257.17 257.17-25.966 0-51.054-3.877-74.679-11.045l148.553-148.553c22.235-22.235 22.235-58.587 0-80.823l-90.624-90.624C218.113 595.309 181.761 595.309 159.525 617.544L10.972 766.097C3.804 742.472-.073 717.384-.073 691.418c0-142.043 115.127-257.17 257.17-257.17 43.593 0 84.699 10.825 120.613 29.989L837.632-54.419c20.48-23.845 55.369-25.234 77.605-2.999l90.624 90.624c22.235 22.162 20.846 57.125-2.999 77.605Zm-780.873 36.133 80.677-.073 104.594 139.045 74.533-71.241L366.227 93.111l.951-81.847-142.409-84.407-76.873 54.93L221.99 147.09Z" data-tags="maintenance" glyph-name="maintenance" unicode=""/><glyph d="M77.678 445.513c-3.657 3.657-5.486 7.973-5.486 12.8v52.809H-.951v-55.077c0-25.161 8.923-46.665 26.99-64.658 17.847-17.847 39.57-26.99 64.658-26.99h54.857v75.41H90.477c-5.047.439-9.143 2.267-12.8 5.705ZM997.23 556.544c-17.847 17.847-39.57 26.99-64.658 26.99H457.143q-6.803 0-13.385-.878L313.564 712.85c-15.799 15.799-21.431 13.458-40.96 17.042s-28.965-1.243-39.936-12.142-15.726-20.407-12.142-39.936c3.511-19.529 1.243-25.234 17.042-40.96l129.243-129.243c-.878-5.047-1.243-10.313-1.243-15.653v-54.857H219.063v-73.143h146.505V18.577c0-25.161 8.923-46.665 26.99-64.658 17.847-17.847 39.57-26.99 64.658-26.99h475.648c25.161 0 46.665 8.923 64.658 26.99 17.847 17.847 26.99 39.57 26.99 64.658v473.381c-.219 25.161-9.143 46.665-27.209 64.658ZM951.077 18.505c0-5.047-1.829-9.143-5.486-12.8s-7.973-5.486-12.8-5.486H457.143c-5.047 0-9.143 1.829-12.8 5.486s-5.486 7.973-5.486 12.8v416.987l185.125-185.125c.951-.951 1.902-1.829 2.779-2.706l-18.505-18.651-87.918-87.918c-13.166-12.727-16.165-27.355-8.923-43.959 7.241-16.969 19.749-25.454 37.595-25.454h285.477c11.045 0 20.626 4.023 28.672 12.069s12.069 17.627 12.069 28.672v285.477c0 17.847-8.265 32.695-24.869 39.936-17.408 7.168-32.256 1.902-44.617-11.264l-82.798-82.213-20.334-20.48c-.805.805-1.609 1.682-2.487 2.56L516.388 510.171h416.475c5.047 0 9.143-1.829 12.8-5.486s5.486-7.973 5.486-12.8V18.504ZM-.951 733.038h73.143V585.582H-.951Zm510.684-.951h73.143V584.631h-73.143ZM25.819 925.33C7.972 907.483-.951 886.052-.951 860.891v-55.735h73.143v55.735c0 5.047 1.829 9.143 5.486 12.8s7.973 5.486 12.8 5.486h55.296v73.143H90.478c-25.161 0-46.665-8.923-64.658-26.99Zm192.22 26.917h147.456v-73.143H218.039Zm287.744-78.629c3.657-3.657 5.486-7.973 5.486-12.8v-91.429h75.41v91.429c0 25.161-8.923 46.665-26.99 64.658-17.847 17.847-39.57 26.99-64.658 26.99h-55.515v-73.143h53.248c5.047-.219 9.362-2.048 13.019-5.705" data-tags="migration" glyph-name="migration" unicode=""/><glyph d="M584.704 607.012V270.774c0-21.065-7.68-39.351-23.113-54.711s-29.111-23.113-50.176-23.113-34.743 7.68-50.176 23.113-23.113 33.646-23.113 54.711v336.238c0 21.065 7.68 39.351 23.113 54.711s29.038 23.113 50.176 23.113 34.743-7.68 50.176-23.113 23.113-33.646 23.113-54.711M512-73.143c-70.656 0-136.997 13.385-199.022 40.009S196.827 30.208 150.455 76.873 67.438 177.883 40.448 239.835-.073 368.201-.073 438.857s13.531 136.997 40.521 199.022 63.634 116.151 110.007 162.523 100.498 83.017 162.523 110.007S441.344 950.93 512 950.93s136.997-13.531 199.022-40.521 116.151-63.707 162.523-110.007c46.299-46.299 83.017-100.498 110.007-162.523s40.521-128.366 40.521-199.022-13.531-136.997-40.521-199.022-63.707-116.37-110.007-162.962C827.246 30.208 773.047-6.437 711.022-33.134S582.656-73.143 512-73.143M361.545 796.379c-46.958-20.334-88.137-48.128-123.465-83.529s-63.195-76.507-83.529-123.465-30.501-97.134-30.501-150.455 10.167-103.643 30.501-150.967c20.334-47.323 48.128-88.503 83.529-123.465s76.507-62.683 123.465-83.017S458.679 50.98 512 50.98s103.497 10.167 150.455 30.501 88.137 47.982 123.465 83.017 63.122 76.142 83.529 123.465q30.501 70.985 30.501 150.967c0 79.982-10.167 103.497-30.501 150.455s-48.128 88.137-83.529 123.465-76.507 63.122-123.465 83.529C615.497 816.713 565.321 826.88 512 826.88s-103.497-10.167-150.455-30.501" data-tags="off" glyph-name="off" unicode=""/><glyph d="M511.781-73.143c-70.656 0-136.923 13.312-198.875 40.009S196.828 30.135 150.456 76.8c-46.299 46.665-82.944 100.937-109.934 162.962S.074 368.055.074 438.637 13.532 575.56 40.522 637.512s63.634 116.078 109.934 162.45c46.299 46.299 100.425 82.944 162.45 109.934s128.293 40.448 198.875 40.448 136.923-13.458 198.875-40.448 116.078-63.634 162.45-109.934c46.299-46.299 82.944-100.425 109.934-162.45s40.448-128.293 40.448-198.875-13.458-136.923-40.448-198.875S919.406 123.465 873.106 76.8 772.681-6.51 710.656-33.134 582.363-73.143 511.781-73.143M361.326 795.94c-46.958-20.334-88.137-48.128-123.465-83.456s-63.122-76.434-83.456-123.465-30.501-97.134-30.501-150.455 10.167-103.643 30.501-150.894c20.334-47.323 48.128-88.43 83.456-123.465s76.434-62.61 123.465-82.944S458.46 50.76 511.781 50.76s103.424 10.167 150.455 30.501c46.958 20.334 88.137 47.982 123.465 82.944s63.122 76.142 83.456 123.465 30.501 97.646 30.501 150.894-10.167 103.424-30.501 150.455c-20.334 46.958-48.128 88.137-83.456 123.465s-76.434 63.122-123.465 83.456-97.134 30.501-150.455 30.501-103.424-10.167-150.455-30.501m369.371-297.545c1.975-8.119 2.414-19.383-1.17-26.331-7.387-14.263-16.457-26.99-26.185-40.96-83.017-119.296-158.135-200.485-249.71-305.371-17.993-20.626-34.889-13.751-42.057-9.07-15.579 10.24-15.799 29.769-7.314 52.297 9.801 25.966 20.48 57.783 29.842 79.799 22.455 52.736 20.187 58.075 41.911 114.907-52.297-.512-127.781-.951-180.078-1.463-15.067-.146-33.499 1.902-39.497 16.311-5.778 13.751-.146 26.039 8.558 38.107 64.146 89.381 172.617 212.626 248.174 294.546 6.51 7.022 30.062 23.333 43.739 21.358 10.825-1.536 21.87 1.243 26.843-9.289 5.851-12.434 2.706-25.746-2.56-37.23-22.016-48.347-45.714-118.638-71.095-174.519 50.615-.073 144.53-.073 195.145-.146 8.558 0 18.432-.731 23.406-8.046 1.024-1.536 1.755-3.145 2.121-4.901Z" data-tags="on-running" glyph-name="on-running" unicode=""/><glyph d="M731.429 770.267c36.571 28.16 77.239 3.584 77.239 3.584 13.97-11.557 26.551-25.234 39.351-38.107 42.935-42.935 76.873-93.038 101.888-150.455s37.522-118.857 37.522-184.247c0-65.463-12.507-126.83-37.522-184.247S890.954 109.056 848.019 65.828C805.084 22.601 754.981-11.338 697.564-36.06S578.707-73.143 513.317-73.143c-65.463 0-126.83 12.361-184.247 37.083S221.477 22.601 178.615 65.828c-42.935 43.227-76.873 93.55-101.888 150.967S39.205 335.652 39.205 401.042s12.507 126.83 37.522 184.247 58.953 107.593 101.888 150.455c11.045 11.045 22.162 22.089 33.938 32.256 0 0 32.11 33.499 80.091 3.072 0 0 52.517-45.714 0-98.158-8.777-8.777-18.944-16.165-27.794-25.015q-47.945-47.945-75.483-111.689c-27.538-63.744-27.575-87.845-27.575-136.046s9.216-93.696 27.575-136.485 43.52-80.018 75.483-111.689c31.963-31.598 69.193-56.686 111.689-75.045S464.384 49.37 512.585 49.37s93.55 9.216 136.046 27.575 79.726 43.374 111.689 75.045q47.945 47.397 75.483 111.689c27.538 64.292 27.575 88.283 27.575 136.485s-9.216 93.55-27.575 136.046-43.52 79.726-75.483 111.689c-9.143 9.143-19.529 16.823-28.745 25.819-47.689 46.226 0 96.622 0 96.622ZM586.167 873.472V518.51c0-21.358-7.826-39.79-23.406-55.369s-29.477-23.406-50.834-23.406-35.255 7.826-50.834 23.406-23.406 34.011-23.406 55.369v354.962c0 21.358 7.826 39.79 23.406 55.369s29.477 23.406 50.834 23.406 35.255-7.826 50.834-23.406 23.406-34.011 23.406-55.369" data-tags="on" glyph-name="on" unicode=""/><glyph d="M438.418 607.012V269.969c0-21.285-8.85-40.448-23.113-54.053-15.433-15.433-29.111-23.113-50.322-23.113s-34.743 7.68-50.322 23.113c-14.263 13.678-23.113 32.841-23.113 54.053v.805-.073 337.043c0 21.285 8.85 40.448 23.113 54.053 15.433 15.433 29.038 23.113 50.322 23.113s34.743-7.68 50.322-23.113c14.263-13.678 23.113-32.841 23.113-54.126v-.805.073Zm292.572 0V269.969c0-21.285-8.85-40.448-23.113-54.053-15.433-15.433-29.111-23.113-50.322-23.113s-34.743 7.68-50.322 23.113c-14.263 13.678-23.113 32.841-23.113 54.053v.805-.073 337.043c0 21.285 8.85 40.448 23.113 54.053 15.433 15.433 29.038 23.113 50.322 23.113s34.743-7.68 50.322-23.113c14.263-13.678 23.113-32.841 23.113-54.126v-.805.073ZM512-73.143c-70.656 0-136.997 13.312-199.022 40.009C249.783-5.852 195.876 31.232 150.528 76.8c-45.349 45.714-82.359 99.767-108.69 159.598l-1.317 3.365C13.531 301.788 0 368.129 0 438.785s13.531 136.997 40.521 199.022c53.541 122.88 149.65 218.917 269.166 271.214l3.365 1.317c62.025 26.99 128.366 40.521 199.022 40.521s136.997-13.531 199.022-40.521c122.88-53.541 218.917-149.65 271.214-269.166l1.317-3.365c26.99-62.025 40.521-128.366 40.521-199.022s-13.531-136.997-40.521-199.022c-27.575-63.195-64.658-117.248-110.007-163.035l.073.073C828.271 31.16 774.365-5.924 714.534-31.962l-3.291-1.317c-62.025-26.697-128.366-40.009-199.022-40.009ZM361.545 796.379c-93.403-40.594-166.4-113.591-206.043-204.434l-.951-2.56c-19.31-44.471-30.501-96.329-30.501-150.747s11.191-106.277 31.451-153.307l-.951 2.487c20.626-47.982 48.786-88.942 83.456-123.392 34.597-34.231 75.557-62.245 120.905-81.993l2.56-1.024c44.398-19.31 96.183-30.501 150.528-30.501s106.057 11.191 153.015 31.451l-2.487-.951c47.909 20.773 88.795 48.786 123.465 83.017l-.073-.073c34.67 34.45 62.83 75.41 82.505 120.905l.951 2.487c19.31 44.471 30.501 96.329 30.501 150.747s-11.191 106.277-31.451 153.307l.951-2.487c-40.594 93.403-113.591 166.4-204.434 206.043l-2.56.951c-44.398 19.31-96.183 30.501-150.528 30.501s-106.057-11.191-153.015-31.451l2.487.951h.146Z" data-tags="paused" glyph-name="paused" unicode=""/></font>
</defs>
</svg>
